<svg width="25" height="24" viewBox="0 0 25 24" fill="none" xmlns="http://www.w3.org/2000/svg">
<path d="M1.23516 4H4.95516C5.23367 2.87141 5.97057 1.85735 7.04165 1.12872C8.11274 0.40009 9.45251 0.00145452 10.8352 0L13.2352 0C14.6178 0.00145452 15.9576 0.40009 17.0287 1.12872C18.0997 1.85735 18.8366 2.87141 19.1152 4H22.8352C23.1534 4 23.4586 4.10536 23.6837 4.29289C23.9087 4.48043 24.0352 4.73478 24.0352 5C24.0352 5.26522 23.9087 5.51957 23.6837 5.70711C23.4586 5.89464 23.1534 6 22.8352 6H21.6352V19C21.6333 20.3256 21.0005 21.5964 19.8757 22.5338C18.7509 23.4711 17.2259 23.9984 15.6352 24H8.43516C6.84444 23.9984 5.31942 23.4711 4.19462 22.5338C3.06981 21.5964 2.43706 20.3256 2.43516 19V6H1.23516C0.916895 6 0.61167 5.89464 0.386627 5.70711C0.161583 5.51957 0.0351562 5.26522 0.0351562 5C0.0351562 4.73478 0.161583 4.48043 0.386627 4.29289C0.61167 4.10536 0.916895 4 1.23516 4ZM13.2352 2H10.8352C10.0908 2.00076 9.365 2.19338 8.75722 2.55144C8.14944 2.90951 7.68946 3.41549 7.44036 4H16.63C16.3809 3.41549 15.9209 2.90951 15.3131 2.55144C14.7053 2.19338 13.9795 2.00076 13.2352 2ZM4.83516 19C4.83516 19.7956 5.21444 20.5587 5.88957 21.1213C6.5647 21.6839 7.48038 22 8.43516 22H15.6352C16.5899 22 17.5056 21.6839 18.1807 21.1213C18.8559 20.5587 19.2352 19.7956 19.2352 19V6H4.83516V19Z" fill="#767676"/>
<path d="M14.4348 18C14.1165 18 13.8113 17.8946 13.5862 17.7071C13.3612 17.5196 13.2348 17.2652 13.2348 17V11C13.2348 10.7348 13.3612 10.4804 13.5862 10.2929C13.8113 10.1054 14.1165 10 14.4348 10C14.753 10 15.0582 10.1054 15.2833 10.2929C15.5083 10.4804 15.6348 10.7348 15.6348 11V17C15.6348 17.2652 15.5083 17.5196 15.2833 17.7071C15.0582 17.8946 14.753 18 14.4348 18ZM9.63477 18C9.31651 18 9.01128 17.8946 8.78624 17.7071C8.56119 17.5196 8.43477 17.2652 8.43477 17V11C8.43477 10.7348 8.56119 10.4804 8.78624 10.2929C9.01128 10.1054 9.31651 10 9.63477 10C9.95303 10 10.2583 10.1054 10.4833 10.2929C10.7083 10.4804 10.8348 10.7348 10.8348 11V17C10.8348 17.2652 10.7083 17.5196 10.4833 17.7071C10.2583 17.8946 9.95303 18 9.63477 18Z" fill="#767676"/>
</svg>
