<svg width="20" height="20" viewBox="0 0 24 24" fill="none" xmlns="http://www.w3.org/2000/svg">
<g clip-path="url(#clip0_1637_2502)">
<path d="M12 0C11.7642 0 11.5381 0.0936505 11.3714 0.260349C11.2047 0.427048 11.1111 0.653141 11.1111 0.888889V15.6316L5.00531 9.52622C4.92331 9.44132 4.82523 9.37361 4.71678 9.32702C4.60833 9.28044 4.49169 9.25591 4.37366 9.25489C4.25564 9.25386 4.13859 9.27635 4.02935 9.32105C3.92011 9.36574 3.82086 9.43174 3.7374 9.5152C3.65394 9.59867 3.58794 9.69791 3.54324 9.80715C3.49855 9.91639 3.47606 10.0334 3.47708 10.1515C3.47811 10.2695 3.50263 10.3861 3.54922 10.4946C3.5958 10.603 3.66352 10.7011 3.74842 10.7831L11.3706 18.4053C11.4124 18.4471 11.4582 18.4844 11.5071 18.5169C11.5293 18.5316 11.5529 18.5418 11.576 18.5542C11.6035 18.5698 11.6306 18.5862 11.66 18.5987C11.6893 18.6107 11.72 18.6178 11.7502 18.6267C11.7755 18.6342 11.7995 18.644 11.8258 18.6489C11.9408 18.6718 12.0592 18.6718 12.1742 18.6489C12.2004 18.644 12.2244 18.6342 12.2498 18.6267C12.28 18.6178 12.3106 18.6107 12.34 18.5987C12.3693 18.5862 12.3964 18.5698 12.4244 18.5542C12.4471 18.5418 12.4711 18.532 12.4929 18.5169C12.5417 18.4844 12.5873 18.4472 12.6289 18.4058L20.2511 10.7836C20.336 10.7016 20.4038 10.6035 20.4504 10.4951C20.497 10.3867 20.5216 10.27 20.5226 10.152C20.5237 10.034 20.5013 9.91693 20.4566 9.80767C20.4119 9.69841 20.346 9.59914 20.2626 9.51566C20.1791 9.43217 20.0799 9.36613 19.9707 9.32139C19.8614 9.27666 19.7444 9.25413 19.6264 9.25511C19.5084 9.2561 19.3917 9.28058 19.2832 9.32712C19.1748 9.37367 19.0767 9.44135 18.9946 9.52622L12.8889 15.6316V0.888889C12.8889 0.653141 12.7952 0.427048 12.6285 0.260349C12.4618 0.0936505 12.2357 0 12 0Z" fill="#1D1D1D"/>
<path d="M23.1111 14.6667C22.8754 14.6667 22.6493 14.7603 22.4826 14.927C22.3159 15.0937 22.2222 15.3198 22.2222 15.5556V22.2222H1.77778V15.5556C1.77778 15.3198 1.68413 15.0937 1.51743 14.927C1.35073 14.7603 1.12464 14.6667 0.888889 14.6667C0.653141 14.6667 0.427048 14.7603 0.260349 14.927C0.0936505 15.0937 0 15.3198 0 15.5556V23.1111C0 23.3469 0.0936505 23.573 0.260349 23.7397C0.427048 23.9064 0.653141 24 0.888889 24H23.1111C23.3469 24 23.573 23.9064 23.7397 23.7397C23.9064 23.573 24 23.3469 24 23.1111V15.5556C24 15.3198 23.9064 15.0937 23.7397 14.927C23.573 14.7603 23.3469 14.6667 23.1111 14.6667Z" fill="#1D1D1D"/>
</g>
<defs>
<clipPath id="clip0_1637_2502">
<rect width="24" height="24" fill="white"/>
</clipPath>
</defs>
</svg>
