<svg width="24" height="24" viewBox="0 0 24 24" fill="none" xmlns="http://www.w3.org/2000/svg">
<path fill-rule="evenodd" clip-rule="evenodd" d="M9.28839 0.00463174C8.76956 0.0106383 8.27343 0.245668 7.90616 0.659424C7.53889 1.07318 7.32966 1.63279 7.32326 2.2185V5.90056C7.32272 6.06173 7.3503 6.22145 7.40444 6.3706C7.45858 6.51974 7.53821 6.65538 7.63878 6.76978C7.73936 6.88418 7.8589 6.9751 7.9906 7.03734C8.1223 7.09958 8.26357 7.13193 8.40634 7.13254C8.5498 7.13315 8.69195 7.1017 8.8246 7.04001C8.95724 6.97831 9.07776 6.88759 9.1792 6.77307C9.28065 6.65854 9.36101 6.52249 9.41566 6.37274C9.47031 6.22299 9.49817 6.06251 9.49762 5.90056V2.4547H21.8259V21.5505H9.49762V17.9935C9.49763 17.8319 9.46937 17.6719 9.41448 17.5227C9.35958 17.3735 9.27914 17.238 9.17775 17.1239C9.07636 17.0099 8.95602 16.9196 8.82364 16.8582C8.69127 16.7968 8.54945 16.7655 8.40634 16.7661C8.11871 16.7673 7.84323 16.8972 7.64023 17.1272C7.43723 17.3573 7.32325 17.6687 7.32326 17.9935V21.7867C7.32326 22.9909 8.21762 24.0005 9.28839 24.0005H22.0351C23.1018 24.0005 24.0002 22.9909 24.0002 21.7867V2.21387C23.9938 1.62816 23.7846 1.06855 23.4173 0.654792C23.0501 0.241036 22.5539 0.00600652 22.0351 0L9.28839 0.00463174ZM12.5788 6.61426C12.3039 6.62956 12.0444 6.76197 11.8527 6.98478C11.7537 7.10119 11.676 7.23848 11.6241 7.38881C11.5722 7.53914 11.547 7.69956 11.5501 7.86087C11.5531 8.02219 11.5843 8.18125 11.6418 8.32894C11.6994 8.47663 11.7822 8.61006 11.8855 8.7216L13.7575 10.7771H1.09129C0.803661 10.7759 0.527316 10.9034 0.322778 11.1317C0.118239 11.36 0.00217652 11.6705 7.77079e-06 11.9952C-0.000534624 12.1572 0.0273221 12.3176 0.0819723 12.4674C0.136622 12.6171 0.216985 12.7532 0.318429 12.8677C0.419872 12.9822 0.54039 13.073 0.673036 13.1347C0.805682 13.1963 0.947832 13.2278 1.09129 13.2272H13.7655L11.8855 15.2798C11.6794 15.5047 11.5603 15.8124 11.5541 16.136C11.548 16.4595 11.6553 16.7727 11.8527 17.0074C11.9515 17.124 12.0696 17.2174 12.2005 17.2824C12.3313 17.3474 12.4722 17.3826 12.6151 17.3861C12.758 17.3895 12.9001 17.3611 13.0332 17.3025C13.1664 17.2439 13.288 17.1562 13.3911 17.0444L16.8045 13.3207C17.1124 12.9702 17.2851 12.4966 17.2851 12.003C17.2851 11.5094 17.1124 11.0358 16.8045 10.6854L13.3911 6.96162C13.2841 6.8438 13.1568 6.75214 13.017 6.69238C12.8773 6.63261 12.7281 6.60602 12.5788 6.61426Z" fill="#1D1D1D"/>
</svg>
