<svg width="40" height="40" viewBox="0 0 40 40" fill="none" xmlns="http://www.w3.org/2000/svg">
<rect width="40" height="40" rx="20" fill="#E5F2FF"/>
<path d="M17.2729 29.0906C17.7749 29.0906 18.182 28.6836 18.182 28.1816C18.182 27.6795 17.7749 27.2725 17.2729 27.2725C16.7708 27.2725 16.3638 27.6795 16.3638 28.1816C16.3638 28.6836 16.7708 29.0906 17.2729 29.0906Z" stroke="#1D1D1D" stroke-width="1.81818" stroke-linecap="round" stroke-linejoin="round"/>
<path d="M27.2729 29.0906C27.7749 29.0906 28.182 28.6836 28.182 28.1816C28.182 27.6795 27.7749 27.2725 27.2729 27.2725C26.7708 27.2725 26.3638 27.6795 26.3638 28.1816C26.3638 28.6836 26.7708 29.0906 27.2729 29.0906Z" stroke="#1D1D1D" stroke-width="1.81818" stroke-linecap="round" stroke-linejoin="round"/>
<path d="M10 10H13.6364L16.0727 22.1727C16.1559 22.5913 16.3836 22.9672 16.716 23.2348C17.0483 23.5024 17.4643 23.6445 17.8909 23.6364H26.7273C27.1539 23.6445 27.5698 23.5024 27.9022 23.2348C28.2346 22.9672 28.4623 22.5913 28.5455 22.1727L30 14.5455H14.5455" stroke="#1D1D1D" stroke-width="1.81818" stroke-linecap="round" stroke-linejoin="round"/>
</svg>
