<svg width="58" height="40" viewBox="0 0 58 40" fill="none" xmlns="http://www.w3.org/2000/svg">
<rect x="0.5" y="0.5" width="57" height="39" rx="3.5" fill="white" stroke="#E8E8E8"/>
<path fill-rule="evenodd" clip-rule="evenodd" d="M21.2495 30.8909V32.3678V33.8447H20.6022V33.4861C20.3969 33.752 20.0854 33.9189 19.662 33.9189C18.8272 33.9189 18.1728 33.2703 18.1728 32.3678C18.1728 31.466 18.8272 30.8167 19.662 30.8167C20.0854 30.8167 20.3969 30.9836 20.6022 31.2495V30.8909H21.2495ZM19.7425 31.4221C19.1822 31.4221 18.8393 31.8486 18.8393 32.3678C18.8393 32.887 19.1822 33.3135 19.7425 33.3135C20.2779 33.3135 20.6393 32.9054 20.6393 32.3678C20.6393 31.8302 20.2779 31.4221 19.7425 31.4221ZM43.1234 32.3678C43.1234 31.8486 43.4663 31.4221 44.0266 31.4221C44.5627 31.4221 44.9234 31.8302 44.9234 32.3678C44.9234 32.9054 44.5627 33.3135 44.0266 33.3135C43.4663 33.3135 43.1234 32.887 43.1234 32.3678ZM45.5344 29.7048V32.3678V33.8447H44.8864V33.4861C44.6811 33.752 44.3695 33.9189 43.9461 33.9189C43.1113 33.9189 42.4569 33.2703 42.4569 32.3678C42.4569 31.466 43.1113 30.8167 43.9461 30.8167C44.3695 30.8167 44.6811 30.9836 44.8864 31.2495V29.7048H45.5344ZM29.2842 31.3919C29.7012 31.3919 29.9693 31.6515 30.0377 32.1084H28.4929C28.5621 31.6819 28.823 31.3919 29.2842 31.3919ZM27.8144 32.3678C27.8144 31.4469 28.4246 30.8167 29.2972 30.8167C30.1312 30.8167 30.7044 31.4469 30.7108 32.3678C30.7108 32.4541 30.7044 32.5347 30.698 32.6147H28.4873C28.5807 33.1466 28.9607 33.3382 29.3777 33.3382C29.6764 33.3382 29.9944 33.2265 30.2439 33.0291L30.5611 33.5052C30.1997 33.8079 29.7891 33.9189 29.3407 33.9189C28.4496 33.9189 27.8144 33.3071 27.8144 32.3678ZM37.1132 32.3678C37.1132 31.8486 37.4561 31.4221 38.0164 31.4221C38.5517 31.4221 38.9132 31.8302 38.9132 32.3678C38.9132 32.9054 38.5517 33.3135 38.0164 33.3135C37.4561 33.3135 37.1132 32.887 37.1132 32.3678ZM39.5234 30.8909V32.3678V33.8447H38.8761V33.4861C38.6701 33.752 38.3593 33.9189 37.9358 33.9189C37.1011 33.9189 36.4466 33.2703 36.4466 32.3678C36.4466 31.466 37.1011 30.8167 37.9358 30.8167C38.3593 30.8167 38.6701 30.9836 38.8761 31.2495V30.8909H39.5234ZM33.4575 32.3678C33.4575 33.264 34.0863 33.9189 35.0458 33.9189C35.4942 33.9189 35.7929 33.8199 36.1165 33.5667L35.8057 33.0475C35.5626 33.2208 35.3074 33.3135 35.0265 33.3135C34.5097 33.3071 34.1297 32.9365 34.1297 32.3678C34.1297 31.7991 34.5097 31.4285 35.0265 31.4221C35.3074 31.4221 35.5626 31.5148 35.8057 31.6881L36.1165 31.1689C35.7929 30.9157 35.4942 30.8167 35.0458 30.8167C34.0863 30.8167 33.4575 31.4716 33.4575 32.3678ZM41.0182 31.2497C41.1864 30.9901 41.4295 30.8169 41.803 30.8169C41.9342 30.8169 42.121 30.8416 42.2643 30.8975L42.0647 31.5029C41.9278 31.4471 41.7909 31.4287 41.6598 31.4287C41.2363 31.4287 41.0246 31.7003 41.0246 32.189V33.8449H40.3766V30.8911H41.0182V31.2497ZM24.451 31.1258C24.1395 30.9221 23.7103 30.8167 23.237 30.8167C22.4827 30.8167 21.9973 31.1753 21.9973 31.7623C21.9973 32.244 22.3587 32.5411 23.0245 32.6338L23.3304 32.6769C23.6854 32.7264 23.8529 32.8191 23.8529 32.986C23.8529 33.2145 23.6162 33.3446 23.1742 33.3446C22.7258 33.3446 22.4022 33.2024 22.1841 33.0355L21.8789 33.5356C22.234 33.7952 22.6824 33.9189 23.1678 33.9189C24.0275 33.9189 24.5258 33.5172 24.5258 32.9549C24.5258 32.4357 24.1338 32.1641 23.4858 32.0714L23.1807 32.0276C22.9005 31.9908 22.6759 31.9356 22.6759 31.7376C22.6759 31.5212 22.8877 31.3917 23.2427 31.3917C23.6226 31.3917 23.9905 31.5339 24.1708 31.6449L24.451 31.1258ZM32.0189 31.2497C32.1864 30.9901 32.4295 30.8169 32.803 30.8169C32.9342 30.8169 33.121 30.8416 33.2643 30.8975L33.0647 31.5029C32.9278 31.4471 32.7909 31.4287 32.6598 31.4287C32.2363 31.4287 32.0246 31.7003 32.0246 32.189V33.8449H31.3773V30.8911H32.0189V31.2497ZM27.2789 30.8909H26.2203V29.9948H25.5659V30.8909H24.9621V31.478H25.5659V32.8254C25.5659 33.5108 25.8339 33.9189 26.5995 33.9189C26.8804 33.9189 27.2041 33.8327 27.4094 33.6905L27.2226 33.1402C27.0294 33.2512 26.8177 33.3071 26.6495 33.3071C26.3258 33.3071 26.2203 33.1091 26.2203 32.8127V31.478H27.2789V30.8909ZM17.6003 31.991V33.8449H16.9459V32.2011C16.9459 31.7003 16.7341 31.4223 16.2922 31.4223C15.8623 31.4223 15.5636 31.6946 15.5636 32.2074V33.8449H14.9092V32.2011C14.9092 31.7003 14.6917 31.4223 14.2619 31.4223C13.8192 31.4223 13.5326 31.6946 13.5326 32.2074V33.8449H12.8789V30.8911H13.5269V31.2554C13.77 30.9095 14.0808 30.8169 14.3988 30.8169C14.8536 30.8169 15.1772 31.0149 15.3825 31.3424C15.657 30.9279 16.0491 30.8105 16.429 30.8169C17.1519 30.8232 17.6003 31.2929 17.6003 31.991Z" fill="#231F20"/>
<path d="M34.0469 25.8712H24.2363V8.37793H34.0469V25.8712Z" fill="#FF5F00"/>
<path d="M24.8583 17.1257C24.8583 13.5771 26.5328 10.4161 29.1405 8.37904C27.2336 6.88944 24.8269 6.00035 22.2114 6.00035C16.0194 6.00035 11 10.9812 11 17.1257C11 23.2701 16.0194 28.251 22.2114 28.251C24.8269 28.251 27.2336 27.3619 29.1405 25.8723C26.5328 23.8352 24.8583 20.6742 24.8583 17.1257Z" fill="#EB001B"/>
<path d="M47.2819 17.1257C47.2819 23.2701 42.2625 28.251 36.0705 28.251C33.4549 28.251 31.0483 27.3619 29.1406 25.8723C31.749 23.8352 33.4236 20.6742 33.4236 17.1257C33.4236 13.5771 31.749 10.4161 29.1406 8.37904C31.0483 6.88944 33.4549 6.00035 36.0705 6.00035C42.2625 6.00035 47.2819 10.9812 47.2819 17.1257Z" fill="#F79E1B"/>
</svg>
