<svg width="58" height="40" viewBox="0 0 58 40" fill="none" xmlns="http://www.w3.org/2000/svg">
<rect x="0.5" y="0.5" width="57" height="39" rx="3.5" fill="white" stroke="#E8E8E8"/>
<path fill-rule="evenodd" clip-rule="evenodd" d="M9.38205 14.0022C9.40253 14.0021 9.42497 14.0017 9.44918 14.0013C9.92544 13.9932 11.0894 13.9734 11.5965 15.685C11.9555 16.8966 12.5274 18.8813 13.3121 21.639H13.6317C14.4732 18.7316 15.0513 16.747 15.366 15.685C15.8722 13.9764 17.0925 13.9931 17.6842 14.0012C17.7218 14.0018 17.7569 14.0022 17.7892 14.0022L21.9438 14.0022V26.926H17.7093V19.3098H17.4253L15.0648 26.926H11.8789L9.51842 19.3042H9.23447V26.926H5V14.0022L9.38205 14.0022ZM28.0244 14.002V21.6239H28.3622L31.2336 15.3565C31.791 14.1092 32.9789 14.002 32.9789 14.002H37.0766V26.9258H32.7537V19.3039H32.4159L29.6008 25.5713C29.0435 26.8129 27.7992 26.9258 27.7992 26.9258H23.7015V14.002H28.0244ZM47.4252 23.0762C49.5217 23.0762 51.4154 21.8525 52.0184 20.1437H38.7809V26.926H42.8917V23.0762H47.4252Z" fill="#40A548"/>
<path d="M47.6235 14.0029H38.5654C38.781 16.8802 41.2588 19.3433 43.8239 19.3433H52.3041C52.7935 16.952 51.1088 14.0029 47.6235 14.0029Z" fill="#1291D0"/>
</svg>
