<svg width="58" height="40" viewBox="0 0 58 40" fill="none" xmlns="http://www.w3.org/2000/svg">
<rect x="0.5" y="0.5" width="57" height="39" rx="3.5" fill="white" stroke="#E8E8E8"/>
<g clip-path="url(#clip0_947_13911)">
<path d="M52.757 17.9595V25.6673H50.0664V20.2604H47.4757V25.6673H44.7852V17.959H52.757V17.9595Z" fill="black"/>
<path fill-rule="evenodd" clip-rule="evenodd" d="M39.2589 25.9441C41.6677 25.9441 43.4563 24.4335 43.4563 22.1436C43.4563 19.927 42.1367 18.4878 39.9313 18.4878C38.9135 18.4878 38.0736 18.8543 37.4411 19.4867C37.5921 18.1796 38.6726 17.2254 39.8622 17.2254C40.1368 17.2254 42.2038 17.2209 42.2038 17.2209L43.3723 14.9326C43.3723 14.9326 40.7776 14.993 39.5712 14.993C36.8149 15.0424 34.9531 17.6053 34.9531 20.7178C34.9531 24.3444 36.7689 25.9444 39.2592 25.9444L39.2589 25.9441ZM39.2738 20.5144C40.1681 20.5144 40.7881 21.1155 40.7881 22.1433C40.7881 23.0681 40.2372 23.8305 39.2738 23.8326C38.3523 23.8326 37.7323 23.1264 37.7323 22.1591C37.7323 21.131 38.3523 20.5144 39.2738 20.5144Z" fill="black"/>
<path d="M32.7634 23.0876C32.7634 23.0876 32.128 23.4622 31.1788 23.5332C30.088 23.5663 29.1159 22.8614 29.1159 21.609C29.1159 20.3873 29.9737 19.6872 31.1516 19.6872C31.8738 19.6872 32.8292 20.1992 32.8292 20.1992C32.8292 20.1992 33.5283 18.8869 33.8904 18.2306C33.2273 17.7165 32.344 17.4346 31.3167 17.4346C28.724 17.4346 26.7158 19.1638 26.7158 21.5935C26.7158 24.0541 28.6033 25.7432 31.3167 25.6919C32.0751 25.663 33.1215 25.3909 33.7592 24.9718L32.7634 23.0876Z" fill="black"/>
<path d="M5.57715 13.3652L8.49517 18.7006V21.9551L5.58056 27.28L5.57715 13.3652Z" fill="#5B57A2"/>
<path d="M16.7812 16.7587L19.5155 15.0444L25.1114 15.0391L16.7812 20.2592V16.7587Z" fill="#D90751"/>
<path d="M16.7658 13.3338L16.7813 20.3977L13.8564 18.5593V8L16.7658 13.3338Z" fill="#FAB718"/>
<path d="M25.1115 15.0394L19.5154 15.0448L16.7658 13.3338L13.8564 8L25.1115 15.0394Z" fill="#ED6F26"/>
<path d="M16.7813 27.3098V23.8826L13.8564 22.0791L13.8581 32.6489L16.7813 27.3098Z" fill="#63B22F"/>
<path d="M19.5087 25.6109L8.49497 18.7006L5.57715 13.3652L25.0995 25.6039L19.5087 25.6109Z" fill="#1487C9"/>
<path d="M13.8584 32.6483L16.7812 27.3092L19.5087 25.6105L25.0996 25.6035L13.8584 32.6483Z" fill="#017F36"/>
<path d="M5.58008 27.2803L13.8797 22.0794L11.0894 20.3281L8.49469 21.9553L5.58008 27.2803Z" fill="#984995"/>
</g>
<defs>
<clipPath id="clip0_947_13911">
<rect width="48" height="24.6486" fill="white" transform="translate(5 8)"/>
</clipPath>
</defs>
</svg>
