<svg width="524" height="494" viewBox="0 0 524 494" fill="none" xmlns="http://www.w3.org/2000/svg">
<g opacity="0.38" filter="url(#filter0_d_19_1254)">
<path d="M374.375 290.582C375.256 288.989 376.932 288 378.752 288H396.542C398.386 288 400.08 289.015 400.95 290.641L408.734 305.184C409.525 306.661 409.523 308.436 408.729 309.912L400.953 324.369C400.081 325.989 398.389 327 396.549 327H378.744C376.928 327 375.255 326.015 374.373 324.428L366.345 309.971C365.508 308.464 365.506 306.633 366.34 305.125L374.375 290.582Z" fill="url(#paint0_linear_19_1254)"/>
<path d="M374.375 290.582C375.256 288.989 376.932 288 378.752 288H396.542C398.386 288 400.08 289.015 400.95 290.641L408.734 305.184C409.525 306.661 409.523 308.436 408.729 309.912L400.953 324.369C400.081 325.989 398.389 327 396.549 327H378.744C376.928 327 375.255 326.015 374.373 324.428L366.345 309.971C365.508 308.464 365.506 306.633 366.34 305.125L374.375 290.582Z" fill="url(#paint1_radial_19_1254)" fill-opacity="0.14"/>
</g>
<g opacity="0.38" filter="url(#filter1_d_19_1254)">
<path d="M257.375 442.582C258.256 440.989 259.932 440 261.752 440H279.542C281.386 440 283.08 441.015 283.95 442.641L291.734 457.184C292.525 458.661 292.523 460.436 291.729 461.912L283.953 476.369C283.081 477.989 281.389 479 279.549 479H261.744C259.928 479 258.255 478.015 257.373 476.428L249.345 461.971C248.508 460.464 248.506 458.633 249.34 457.125L257.375 442.582Z" fill="url(#paint2_linear_19_1254)"/>
<path d="M257.375 442.582C258.256 440.989 259.932 440 261.752 440H279.542C281.386 440 283.08 441.015 283.95 442.641L291.734 457.184C292.525 458.661 292.523 460.436 291.729 461.912L283.953 476.369C283.081 477.989 281.389 479 279.549 479H261.744C259.928 479 258.255 478.015 257.373 476.428L249.345 461.971C248.508 460.464 248.506 458.633 249.34 457.125L257.375 442.582Z" fill="url(#paint3_radial_19_1254)" fill-opacity="0.14"/>
</g>
<g opacity="0.38" filter="url(#filter2_d_19_1254)">
<path d="M95.3753 188.582C96.2555 186.989 97.9318 186 99.7517 186H117.542C119.386 186 121.08 187.015 121.95 188.641L129.734 203.184C130.525 204.661 130.523 206.436 129.729 207.912L121.953 222.369C121.081 223.989 119.389 225 117.549 225H99.7445C97.9284 225 96.255 224.015 95.3733 222.428L87.3447 207.971C86.5081 206.464 86.5062 204.633 87.3395 203.125L95.3753 188.582Z" fill="url(#paint4_linear_19_1254)"/>
<path d="M95.3753 188.582C96.2555 186.989 97.9318 186 99.7517 186H117.542C119.386 186 121.08 187.015 121.95 188.641L129.734 203.184C130.525 204.661 130.523 206.436 129.729 207.912L121.953 222.369C121.081 223.989 119.389 225 117.549 225H99.7445C97.9284 225 96.255 224.015 95.3733 222.428L87.3447 207.971C86.5081 206.464 86.5062 204.633 87.3395 203.125L95.3753 188.582Z" fill="url(#paint5_radial_19_1254)" fill-opacity="0.14"/>
</g>
<g opacity="0.38" filter="url(#filter3_d_19_1254)">
<path d="M439.375 85.5819C440.256 83.9889 441.932 83 443.752 83H461.542C463.386 83 465.08 84.0149 465.95 85.6406L473.734 100.184C474.525 101.661 474.523 103.436 473.729 104.912L465.953 119.369C465.081 120.989 463.389 122 461.549 122H443.744C441.928 122 440.255 121.015 439.373 119.428L431.345 104.971C430.508 103.464 430.506 101.633 431.34 100.125L439.375 85.5819Z" fill="url(#paint6_linear_19_1254)" shape-rendering="crispEdges"/>
<path d="M439.375 85.5819C440.256 83.9889 441.932 83 443.752 83H461.542C463.386 83 465.08 84.0149 465.95 85.6406L473.734 100.184C474.525 101.661 474.523 103.436 473.729 104.912L465.953 119.369C465.081 120.989 463.389 122 461.549 122H443.744C441.928 122 440.255 121.015 439.373 119.428L431.345 104.971C430.508 103.464 430.506 101.633 431.34 100.125L439.375 85.5819Z" fill="url(#paint7_radial_19_1254)" fill-opacity="0.14" shape-rendering="crispEdges"/>
</g>
<g opacity="0.38" filter="url(#filter4_d_19_1254)">
<path d="M409.375 316.582C410.256 314.989 411.932 314 413.752 314H431.542C433.386 314 435.08 315.015 435.95 316.641L443.734 331.184C444.525 332.661 444.523 334.436 443.729 335.912L435.953 350.369C435.081 351.989 433.389 353 431.549 353H413.744C411.928 353 410.255 352.015 409.373 350.428L401.345 335.971C400.508 334.464 400.506 332.633 401.34 331.125L409.375 316.582Z" fill="url(#paint8_linear_19_1254)" shape-rendering="crispEdges"/>
<path d="M409.375 316.582C410.256 314.989 411.932 314 413.752 314H431.542C433.386 314 435.08 315.015 435.95 316.641L443.734 331.184C444.525 332.661 444.523 334.436 443.729 335.912L435.953 350.369C435.081 351.989 433.389 353 431.549 353H413.744C411.928 353 410.255 352.015 409.373 350.428L401.345 335.971C400.508 334.464 400.506 332.633 401.34 331.125L409.375 316.582Z" fill="url(#paint9_radial_19_1254)" fill-opacity="0.14" shape-rendering="crispEdges"/>
</g>
<g opacity="0.38" filter="url(#filter5_d_19_1254)">
<path d="M123.908 31.0199C124.262 30.3899 124.928 30 125.651 30H137.534C138.266 30 138.94 30.4003 139.291 31.0436L144.478 40.5703C144.803 41.1679 144.803 41.8899 144.476 42.4869L139.291 51.9602C138.94 52.6013 138.268 53 137.537 53H125.648C124.927 53 124.262 52.6117 123.907 51.9838L118.554 42.5105C118.21 41.9013 118.209 41.1565 118.552 40.5466L123.908 31.0199Z" fill="url(#paint10_linear_19_1254)" shape-rendering="crispEdges"/>
<path d="M123.908 31.0199C124.262 30.3899 124.928 30 125.651 30H137.534C138.266 30 138.94 30.4003 139.291 31.0436L144.478 40.5703C144.803 41.1679 144.803 41.8899 144.476 42.4869L139.291 51.9602C138.94 52.6013 138.268 53 137.537 53H125.648C124.927 53 124.262 52.6117 123.907 51.9838L118.554 42.5105C118.21 41.9013 118.209 41.1565 118.552 40.5466L123.908 31.0199Z" fill="url(#paint11_radial_19_1254)" fill-opacity="0.14" shape-rendering="crispEdges"/>
</g>
<g opacity="0.38" filter="url(#filter6_d_19_1254)">
<path d="M44.3753 336.582C45.2555 334.989 46.9318 334 48.7517 334H66.5421C68.386 334 70.0803 335.015 70.9504 336.641L78.7341 351.184C79.5247 352.661 79.5228 354.436 78.7291 355.912L70.9526 370.369C70.0808 371.989 68.3894 373 66.5492 373H48.7445C46.9284 373 45.255 372.015 44.3733 370.428L36.3447 355.971C35.5081 354.464 35.5062 352.633 36.3395 351.125L44.3753 336.582Z" fill="url(#paint12_linear_19_1254)" shape-rendering="crispEdges"/>
<path d="M44.3753 336.582C45.2555 334.989 46.9318 334 48.7517 334H66.5421C68.386 334 70.0803 335.015 70.9504 336.641L78.7341 351.184C79.5247 352.661 79.5228 354.436 78.7291 355.912L70.9526 370.369C70.0808 371.989 68.3894 373 66.5492 373H48.7445C46.9284 373 45.255 372.015 44.3733 370.428L36.3447 355.971C35.5081 354.464 35.5062 352.633 36.3395 351.125L44.3753 336.582Z" fill="url(#paint13_radial_19_1254)" fill-opacity="0.14" shape-rendering="crispEdges"/>
</g>
<g opacity="0.38" filter="url(#filter7_d_19_1254)">
<path d="M289.39 422.029C289.742 421.394 290.412 421 291.138 421H304.062C304.798 421 305.475 421.404 305.823 422.052L311.489 432.582C311.808 433.175 311.807 433.888 311.487 434.481L305.824 444.951C305.475 445.597 304.8 446 304.065 446H291.135C290.41 446 289.742 445.608 289.389 444.975L283.543 434.504C283.205 433.9 283.205 433.163 283.541 432.558L289.39 422.029Z" fill="url(#paint14_linear_19_1254)" shape-rendering="crispEdges"/>
<path d="M289.39 422.029C289.742 421.394 290.412 421 291.138 421H304.062C304.798 421 305.475 421.404 305.823 422.052L311.489 432.582C311.808 433.175 311.807 433.888 311.487 434.481L305.824 444.951C305.475 445.597 304.8 446 304.065 446H291.135C290.41 446 289.742 445.608 289.389 444.975L283.543 434.504C283.205 433.9 283.205 433.163 283.541 432.558L289.39 422.029Z" fill="url(#paint15_radial_19_1254)" fill-opacity="0.14" shape-rendering="crispEdges"/>
</g>
<g opacity="0.38" filter="url(#filter8_d_19_1254)">
<path d="M487.39 230.029C487.742 229.394 488.412 229 489.138 229H502.062C502.798 229 503.475 229.404 503.823 230.052L509.489 240.582C509.808 241.175 509.807 241.888 509.487 242.481L503.824 252.951C503.475 253.597 502.8 254 502.065 254H489.135C488.41 254 487.742 253.608 487.389 252.975L481.543 242.504C481.205 241.9 481.205 241.163 481.541 240.558L487.39 230.029Z" fill="url(#paint16_linear_19_1254)" shape-rendering="crispEdges"/>
<path d="M487.39 230.029C487.742 229.394 488.412 229 489.138 229H502.062C502.798 229 503.475 229.404 503.823 230.052L509.489 240.582C509.808 241.175 509.807 241.888 509.487 242.481L503.824 252.951C503.475 253.597 502.8 254 502.065 254H489.135C488.41 254 487.742 253.608 487.389 252.975L481.543 242.504C481.205 241.9 481.205 241.163 481.541 240.558L487.39 230.029Z" fill="url(#paint17_radial_19_1254)" fill-opacity="0.14" shape-rendering="crispEdges"/>
</g>
<g opacity="0.38" filter="url(#filter9_d_19_1254)">
<path d="M124.39 166.029C124.742 165.394 125.412 165 126.138 165H139.062C139.798 165 140.475 165.404 140.823 166.052L146.489 176.582C146.808 177.175 146.807 177.888 146.487 178.481L140.824 188.951C140.475 189.597 139.8 190 139.065 190H126.135C125.41 190 124.742 189.608 124.389 188.975L118.543 178.504C118.205 177.9 118.205 177.163 118.541 176.558L124.39 166.029Z" fill="url(#paint18_linear_19_1254)" shape-rendering="crispEdges"/>
<path d="M124.39 166.029C124.742 165.394 125.412 165 126.138 165H139.062C139.798 165 140.475 165.404 140.823 166.052L146.489 176.582C146.808 177.175 146.807 177.888 146.487 178.481L140.824 188.951C140.475 189.597 139.8 190 139.065 190H126.135C125.41 190 124.742 189.608 124.389 188.975L118.543 178.504C118.205 177.9 118.205 177.163 118.541 176.558L124.39 166.029Z" fill="url(#paint19_radial_19_1254)" fill-opacity="0.14" shape-rendering="crispEdges"/>
</g>
<g opacity="0.38" filter="url(#filter10_d_19_1254)">
<path d="M148.375 9.58186C149.256 7.9889 150.932 7 152.752 7H170.542C172.386 7 174.08 8.01489 174.95 9.64065L182.734 24.184C183.525 25.6613 183.523 27.4364 182.729 28.912L174.953 43.3686C174.081 44.9892 172.389 46 170.549 46H152.744C150.928 46 149.255 45.0152 148.373 43.4275L140.345 28.9708C139.508 27.4643 139.506 25.6333 140.34 24.1251L148.375 9.58186Z" fill="url(#paint20_linear_19_1254)"/>
<path d="M148.375 9.58186C149.256 7.9889 150.932 7 152.752 7H170.542C172.386 7 174.08 8.01489 174.95 9.64065L182.734 24.184C183.525 25.6613 183.523 27.4364 182.729 28.912L174.953 43.3686C174.081 44.9892 172.389 46 170.549 46H152.744C150.928 46 149.255 45.0152 148.373 43.4275L140.345 28.9708C139.508 27.4643 139.506 25.6333 140.34 24.1251L148.375 9.58186Z" fill="url(#paint21_radial_19_1254)" fill-opacity="0.14"/>
</g>
<g filter="url(#filter11_d_19_1254)">
<path d="M200.32 130.181C202.077 126.986 205.435 125 209.082 125H307.402C311.097 125 314.491 127.038 316.228 130.299L359.49 211.517C361.058 214.463 361.055 217.996 359.48 220.938L316.233 301.72C314.492 304.971 311.104 307 307.417 307H209.068C205.428 307 202.076 305.023 200.316 301.837L155.667 221.056C154.007 218.052 154.003 214.407 155.657 211.4L200.32 130.181Z" fill="url(#paint22_linear_19_1254)" shape-rendering="crispEdges"/>
<path d="M200.32 130.181C202.077 126.986 205.435 125 209.082 125H307.402C311.097 125 314.491 127.038 316.228 130.299L359.49 211.517C361.058 214.463 361.055 217.996 359.48 220.938L316.233 301.72C314.492 304.971 311.104 307 307.417 307H209.068C205.428 307 202.076 305.023 200.316 301.837L155.667 221.056C154.007 218.052 154.003 214.407 155.657 211.4L200.32 130.181Z" fill="url(#paint23_radial_19_1254)" fill-opacity="0.14" shape-rendering="crispEdges"/>
</g>
<path d="M258.496 185.257C262.145 185.257 265.122 182.28 265.122 178.626C265.122 174.977 262.145 172 258.496 172C254.842 172 251.865 174.977 251.865 178.626C251.865 182.28 254.842 185.257 258.496 185.257Z" stroke="white" stroke-width="2" stroke-miterlimit="10" stroke-linecap="round" stroke-linejoin="round"/>
<path d="M258.496 185.257C262.145 185.257 265.122 182.28 265.122 178.626C265.122 174.977 262.145 172 258.496 172C254.842 172 251.865 174.977 251.865 178.626C251.865 182.28 254.842 185.257 258.496 185.257Z" stroke="white" stroke-width="2" stroke-miterlimit="10" stroke-linecap="round" stroke-linejoin="round"/>
<path d="M248.452 243.79L247.815 243.98C236.858 247.193 237.777 257.273 243.504 260.09C247.687 262.148 251.603 261.62 248.354 257.098C246.722 254.835 244.67 250.893 250.741 249.097L258.495 246.798M236.869 203.014C233.697 207.495 231.916 215.275 241.128 219.268L264.459 229.394C273.917 233.495 270.802 237.231 264.346 239.125L258.495 240.844L268.534 243.79C280.543 239.659 280.481 229.728 265.629 223.22L247.087 215.091C242.36 213.017 238.655 209.666 245.039 207.51C246.779 206.925 247.882 205.852 248.498 204.739C249.504 202.901 250.135 199.499 248.878 198.041C247.82 196.815 245.614 196.974 243.494 197.795C240.913 198.796 238.454 200.766 236.869 203.014Z" stroke="white" stroke-width="2" stroke-miterlimit="10" stroke-linecap="round" stroke-linejoin="round"/>
<path d="M261.533 218.755V184.518M261.533 239.951V228.126M255.451 247.701V259.957C255.451 261.63 256.822 263 258.495 263C260.168 263 261.533 261.63 261.533 259.957V247.701M255.451 228.126V239.951M255.451 184.518V218.755" stroke="white" stroke-width="2" stroke-miterlimit="10" stroke-linecap="round" stroke-linejoin="round"/>
<path d="M258.494 220.089L269.898 215.09C274.63 213.017 278.335 209.666 271.946 207.51C270.211 206.925 269.102 205.852 268.486 204.739C267.481 202.901 266.849 199.499 268.107 198.041C269.169 196.815 271.371 196.974 273.495 197.795C276.072 198.796 278.53 200.766 280.116 203.014C283.288 207.495 285.068 215.275 275.861 219.268L266.187 223.466M243.134 228.429C244.992 226.71 247.604 225.052 251.012 223.559M258.494 226.802L252.526 229.394C243.067 233.495 246.182 237.231 252.639 239.125L269.169 243.98C280.126 247.193 279.208 257.273 273.48 260.09C269.297 262.148 265.382 261.62 268.63 257.098C270.262 254.835 272.315 250.893 266.249 249.097L249.564 244.149C242.559 242.071 239.085 238.247 239.706 234.116" stroke="white" stroke-width="2" stroke-miterlimit="10" stroke-linecap="round" stroke-linejoin="round"/>
<path d="M255.452 190.625C248.406 189.901 245.177 185.01 244.669 184.312C237.766 174.725 229.104 180.083 216.329 175.1C214.621 174.432 214.051 174.315 214.005 176.136C213.815 183.229 219.399 186.221 229.006 186.401" stroke="white" stroke-width="2" stroke-miterlimit="10" stroke-linecap="round" stroke-linejoin="round"/>
<path d="M219.568 184.774C218.373 192.524 223.556 195.737 233.081 195.911" stroke="white" stroke-width="2" stroke-miterlimit="10" stroke-linecap="round" stroke-linejoin="round"/>
<path d="M248.707 204.8C250.969 204.495 253.218 204.105 255.451 203.63M224.304 194.351C223.231 201.259 230.057 204.893 234.871 205.324" stroke="white" stroke-width="2" stroke-miterlimit="10" stroke-linecap="round" stroke-linejoin="round"/>
<path d="M292.044 177.26C294.697 176.911 297.556 176.311 300.661 175.1C302.37 174.433 302.934 174.315 302.98 176.136C303.17 183.229 297.586 186.221 287.979 186.401M261.533 190.625C268.58 189.901 271.813 185.01 272.316 184.312C276.134 179.011 280.491 178.277 285.783 177.84" stroke="white" stroke-width="2" stroke-miterlimit="10" stroke-linecap="round" stroke-linejoin="round"/>
<path d="M297.417 184.774C298.618 192.524 293.43 195.737 283.904 195.911" stroke="white" stroke-width="2" stroke-miterlimit="10" stroke-linecap="round" stroke-linejoin="round"/>
<path d="M268.236 204.795C266.183 204.518 263.945 204.138 261.533 203.63M292.68 194.351C293.753 201.259 286.927 204.857 282.113 205.324" stroke="white" stroke-width="2" stroke-miterlimit="10" stroke-linecap="round" stroke-linejoin="round"/>
<g filter="url(#filter12_d_19_1254)">
<path d="M102.041 274.203C103.795 270.995 107.16 269 110.816 269H171.126C174.83 269 178.23 271.047 179.964 274.32L206.515 324.46C208.069 327.394 208.065 330.908 206.506 333.838L179.968 383.698C178.232 386.961 174.837 389 171.141 389H110.801C107.153 389 103.794 387.013 102.037 383.816L74.6395 333.955C72.9952 330.963 72.9914 327.339 74.6293 324.343L102.041 274.203Z" fill="url(#paint24_linear_19_1254)" shape-rendering="crispEdges"/>
<path d="M102.041 274.203C103.795 270.995 107.16 269 110.816 269H171.126C174.83 269 178.23 271.047 179.964 274.32L206.515 324.46C208.069 327.394 208.065 330.908 206.506 333.838L179.968 383.698C178.232 386.961 174.837 389 171.141 389H110.801C107.153 389 103.794 387.013 102.037 383.816L74.6395 333.955C72.9952 330.963 72.9914 327.339 74.6293 324.343L102.041 274.203Z" fill="url(#paint25_radial_19_1254)" fill-opacity="0.14" shape-rendering="crispEdges"/>
</g>
<path d="M140.717 304.521C140.677 304.364 140.607 304.217 140.51 304.088C140.413 303.958 140.292 303.849 140.153 303.767C140.014 303.684 139.86 303.63 139.7 303.607C139.54 303.584 139.377 303.593 139.22 303.633C136.567 304.311 134.359 305.976 133.005 308.322C132.665 308.91 132.867 309.663 133.455 310.002C133.595 310.083 133.75 310.136 133.91 310.157C134.07 310.178 134.233 310.167 134.389 310.126C134.545 310.084 134.691 310.012 134.82 309.913C134.948 309.815 135.055 309.692 135.136 309.552C136.156 307.785 137.823 306.529 139.829 306.017C140.488 305.849 140.885 305.179 140.717 304.521ZM143.401 303.455C143.382 303.452 143.364 303.449 143.344 303.446C142.673 303.343 142.05 303.803 141.946 304.474C141.842 305.143 142.303 305.771 142.97 305.878C143.04 305.89 143.111 305.897 143.182 305.897C143.765 305.897 144.283 305.48 144.391 304.886C144.513 304.217 144.069 303.577 143.401 303.455Z" fill="white"/>
<path d="M165.72 334.995C164.815 334.736 163.835 334.507 162.797 334.308C162.738 334.293 162.678 334.282 162.617 334.276C159.59 333.711 156.075 333.408 152.411 333.408C150.381 333.408 148.398 333.502 146.517 333.681L154.12 320.513C156.028 317.207 156.531 313.343 155.537 309.632C154.543 305.922 152.175 302.827 148.869 300.919C142.019 296.964 133.23 299.319 129.275 306.169L120.098 322.064C120.097 322.065 120.096 322.066 120.096 322.068L120.094 322.072L110.916 337.967C109.008 341.273 108.504 345.137 109.498 348.847C110.493 352.558 112.861 355.653 116.167 357.561C118.335 358.814 120.796 359.474 123.301 359.473C124.351 359.473 125.407 359.358 126.451 359.124C129.231 358.504 131.729 357.095 133.667 355.088C134.641 356.197 136.453 357.135 139.091 357.889C142.665 358.91 147.395 359.473 152.411 359.473C157.425 359.473 162.156 358.91 165.73 357.889C169.89 356.7 172 355.054 172 352.997V339.891C172 339.888 172 339.886 172 339.884C172 337.83 169.887 336.185 165.72 334.995ZM152.411 335.868C154.348 335.868 156.235 335.957 158.021 336.125L142.39 343.023C141.463 342.843 140.587 342.638 139.778 342.406C136.09 341.353 135.283 340.228 135.283 339.883C135.283 339.539 136.09 338.414 139.778 337.36C143.145 336.398 147.632 335.868 152.411 335.868ZM131.406 307.399C134.682 301.725 141.964 299.774 147.639 303.05C150.375 304.63 152.336 307.194 153.16 310.269C153.984 313.345 153.568 316.546 151.989 319.282L143.456 334.061C143.422 334.066 143.39 334.072 143.356 334.077L122.842 322.233L131.406 307.399ZM132.822 339.877C132.822 339.879 132.822 339.881 132.822 339.884V352.293C129.253 357.019 122.556 358.408 117.397 355.43C114.661 353.85 112.7 351.286 111.875 348.21C111.051 345.135 111.468 341.934 113.047 339.198L121.612 324.363L139.728 334.824C139.516 334.879 139.306 334.936 139.102 334.994C134.939 336.184 132.826 337.827 132.822 339.877ZM169.539 352.997C169.539 353.343 168.733 354.472 165.054 355.523C161.694 356.483 157.204 357.012 152.411 357.012C147.618 357.012 143.128 356.483 139.767 355.523C136.088 354.472 135.282 353.343 135.282 352.997V343.243C136.264 343.815 137.539 344.326 139.102 344.773C140.067 345.049 141.118 345.29 142.233 345.497C142.287 345.51 142.342 345.521 142.398 345.527C145.381 346.068 148.824 346.359 152.411 346.359C157.413 346.359 162.139 345.796 165.72 344.773C167.283 344.326 168.557 343.816 169.539 343.244V352.997ZM169.539 339.884V339.887C169.534 340.235 168.72 341.356 165.044 342.407C161.677 343.369 157.19 343.899 152.411 343.899C150.558 343.899 148.75 343.818 147.032 343.664L162.624 336.783C163.48 336.953 164.291 337.146 165.044 337.361C168.725 338.412 169.536 339.535 169.539 339.882L169.539 339.884Z" fill="white"/>
<g filter="url(#filter13_d_19_1254)">
<path d="M30.6812 215.21C32.4338 211.998 35.8005 210 39.4593 210H79.1889C82.8953 210 86.2978 212.05 88.0299 215.327L105.524 248.424C107.073 251.354 107.069 254.862 105.514 257.789L88.0343 290.692C86.2989 293.958 82.9021 296 79.2031 296H39.4449C35.7938 296 32.4328 294.01 30.6771 290.809L12.6308 257.906C10.9916 254.917 10.9877 251.299 12.6206 248.307L30.6812 215.21Z" fill="url(#paint26_linear_19_1254)" shape-rendering="crispEdges"/>
<path d="M30.6812 215.21C32.4338 211.998 35.8005 210 39.4593 210H79.1889C82.8953 210 86.2978 212.05 88.0299 215.327L105.524 248.424C107.073 251.354 107.069 254.862 105.514 257.789L88.0343 290.692C86.2989 293.958 82.9021 296 79.2031 296H39.4449C35.7938 296 32.4328 294.01 30.6771 290.809L12.6308 257.906C10.9916 254.917 10.9877 251.299 12.6206 248.307L30.6812 215.21Z" fill="url(#paint27_radial_19_1254)" fill-opacity="0.14" shape-rendering="crispEdges"/>
</g>
<mask id="mask0_19_1254" style="mask-type:luminance" maskUnits="userSpaceOnUse" x="35" y="229" width="49" height="49">
<path d="M83 277V230H36V277H83Z" fill="white" stroke="white" stroke-width="2"/>
</mask>
<g mask="url(#mask0_19_1254)">
<path d="M59.5 239.866L57.8893 238.255C53.4412 233.807 46.2295 233.807 41.7814 238.255C37.3333 242.703 37.3333 249.915 41.7814 254.363L59.5 272.081L77.2187 254.363C81.6668 249.915 81.6668 242.703 77.2187 238.255C72.7706 233.807 65.5589 233.807 61.1108 238.255L59.5 239.866Z" stroke="white" stroke-width="2" stroke-miterlimit="10" stroke-linecap="round" stroke-linejoin="round"/>
<path d="M68.9746 253.5H82.5645" stroke="white" stroke-width="2" stroke-miterlimit="10" stroke-linecap="round" stroke-linejoin="round"/>
<path d="M36.4355 253.5H48.0156" stroke="white" stroke-width="2" stroke-miterlimit="10" stroke-linecap="round" stroke-linejoin="round"/>
<path d="M48.0156 253.5L52.0352 243.93" stroke="white" stroke-width="2" stroke-miterlimit="10" stroke-linecap="round" stroke-linejoin="round"/>
<path d="M52.0352 243.93L59.3086 258.285L65.3379 247.758" stroke="white" stroke-width="2" stroke-miterlimit="10" stroke-linecap="round" stroke-linejoin="round"/>
<path d="M68.9746 253.5L65.3379 247.758" stroke="white" stroke-width="2" stroke-miterlimit="10" stroke-linecap="round" stroke-linejoin="round"/>
</g>
<g filter="url(#filter14_d_19_1254)">
<path d="M344.478 74.1902C346.234 70.9895 349.594 69 353.245 69H403.554C407.252 69 410.649 71.0414 412.384 74.3075L434.5 115.926C436.063 118.867 436.059 122.392 434.49 125.33L412.389 166.711C410.65 169.967 407.259 172 403.568 172H353.231C349.587 172 346.233 170.019 344.474 166.829L321.656 125.447C320.002 122.448 319.998 118.811 321.645 115.808L344.478 74.1902Z" fill="url(#paint28_linear_19_1254)" shape-rendering="crispEdges"/>
<path d="M344.478 74.1902C346.234 70.9895 349.594 69 353.245 69H403.554C407.252 69 410.649 71.0414 412.384 74.3075L434.5 115.926C436.063 118.867 436.059 122.392 434.49 125.33L412.389 166.711C410.65 169.967 407.259 172 403.568 172H353.231C349.587 172 346.233 170.019 344.474 166.829L321.656 125.447C320.002 122.448 319.998 118.811 321.645 115.808L344.478 74.1902Z" fill="url(#paint29_radial_19_1254)" fill-opacity="0.14" shape-rendering="crispEdges"/>
</g>
<path d="M388.123 120.559H382.498V114.936C382.498 114.695 382.402 114.465 382.232 114.295C382.062 114.125 381.832 114.03 381.592 114.03H374.408C374.168 114.03 373.937 114.125 373.767 114.295C373.597 114.465 373.502 114.695 373.502 114.936V120.559H367.877C367.637 120.559 367.406 120.655 367.236 120.825C367.066 120.995 366.971 121.225 366.971 121.465V128.649C366.971 128.889 367.066 129.12 367.236 129.29C367.406 129.46 367.637 129.555 367.877 129.555H373.502V135.18C373.502 135.42 373.597 135.651 373.767 135.821C373.937 135.991 374.168 136.086 374.408 136.086H381.592C381.832 136.086 382.062 135.991 382.232 135.821C382.402 135.651 382.498 135.42 382.498 135.18V129.555H388.123C388.363 129.555 388.593 129.46 388.763 129.29C388.933 129.12 389.029 128.889 389.029 128.649V121.465C389.029 121.225 388.933 120.995 388.763 120.825C388.593 120.655 388.363 120.559 388.123 120.559ZM387.216 127.743H381.592C381.351 127.743 381.121 127.838 380.951 128.008C380.781 128.178 380.685 128.409 380.685 128.649V134.274H375.314V128.649C375.314 128.409 375.219 128.178 375.049 128.008C374.879 127.838 374.648 127.743 374.408 127.743H368.783V122.372H374.408C374.648 122.372 374.879 122.276 375.049 122.106C375.219 121.936 375.314 121.706 375.314 121.465V115.842H380.685V121.465C380.685 121.706 380.781 121.936 380.951 122.106C381.121 122.276 381.351 122.372 381.592 122.372H387.216V127.743Z" fill="white"/>
<path d="M403.351 106.199H391.681V103.698C391.679 101.922 390.972 100.22 389.716 98.964C388.46 97.7083 386.758 97.002 384.982 97H371.018C369.243 97.002 367.54 97.7083 366.284 98.964C365.028 100.22 364.322 101.922 364.32 103.698V106.199H352.649C351.682 106.2 350.754 106.585 350.07 107.269C349.386 107.953 349.001 108.881 349 109.848V140.283C349.001 141.25 349.386 142.178 350.07 142.862C350.754 143.546 351.682 143.931 352.649 143.932H403.351C404.318 143.931 405.246 143.546 405.93 142.862C406.614 142.178 406.999 141.25 407 140.283V109.848C406.999 108.881 406.614 107.953 405.93 107.269C405.246 106.585 404.318 106.2 403.351 106.199ZM366.132 103.698C366.134 102.403 366.649 101.161 367.565 100.245C368.481 99.329 369.723 98.8139 371.018 98.8125H384.982C386.277 98.8139 387.519 99.3291 388.435 100.245C389.351 101.161 389.867 102.403 389.868 103.698V106.199H387.86V103.698C387.859 102.935 387.556 102.204 387.016 101.664C386.476 101.125 385.745 100.822 384.982 100.821H383.543C383.303 100.821 383.072 100.916 382.902 101.086C382.732 101.256 382.637 101.487 382.637 101.727C382.637 101.967 382.732 102.198 382.902 102.368C383.072 102.538 383.303 102.633 383.543 102.633H384.982C385.264 102.634 385.535 102.746 385.735 102.946C385.935 103.145 386.047 103.416 386.048 103.699V106.2H369.953V103.698C369.953 103.416 370.065 103.145 370.265 102.945C370.465 102.745 370.736 102.633 371.018 102.633H381.045C381.285 102.633 381.516 102.537 381.686 102.367C381.856 102.197 381.951 101.967 381.951 101.727C381.951 101.486 381.856 101.256 381.686 101.086C381.516 100.916 381.285 100.82 381.045 100.82H371.018C370.255 100.821 369.524 101.125 368.984 101.664C368.445 102.204 368.141 102.935 368.14 103.698V106.199H366.132V103.698ZM405.188 140.283C405.187 140.77 404.993 141.237 404.649 141.581C404.305 141.925 403.838 142.119 403.351 142.12H352.649C352.162 142.119 351.695 141.925 351.351 141.581C351.007 141.237 350.813 140.77 350.812 140.283V109.848C350.813 109.361 351.007 108.895 351.351 108.55C351.695 108.206 352.162 108.012 352.649 108.012H403.351C403.838 108.012 404.305 108.206 404.649 108.55C404.993 108.895 405.187 109.361 405.188 109.848V140.283Z" fill="white"/>
<g filter="url(#filter15_d_19_1254)">
<path d="M409.913 221.172C411.672 217.982 415.027 216 418.67 216H458.985C462.676 216 466.068 218.034 467.806 221.29L485.479 254.387C487.054 257.337 487.05 260.879 485.469 263.826L467.811 296.729C466.069 299.975 462.683 302 458.999 302H418.656C415.02 302 411.671 300.027 409.909 296.846L391.678 263.943C390.012 260.935 390.008 257.281 391.668 254.269L409.913 221.172Z" fill="url(#paint30_linear_19_1254)" shape-rendering="crispEdges"/>
<path d="M409.913 221.172C411.672 217.982 415.027 216 418.67 216H458.985C462.676 216 466.068 218.034 467.806 221.29L485.479 254.387C487.054 257.337 487.05 260.879 485.469 263.826L467.811 296.729C466.069 299.975 462.683 302 458.999 302H418.656C415.02 302 411.671 300.027 409.909 296.846L391.678 263.943C390.012 260.935 390.008 257.281 391.668 254.269L409.913 221.172Z" fill="url(#paint31_radial_19_1254)" fill-opacity="0.14" shape-rendering="crispEdges"/>
</g>
<path d="M454.172 253.07H444.816V243.713C444.816 243.512 444.736 243.319 444.594 243.177C444.451 243.035 444.258 242.955 444.057 242.955H433.942C433.74 242.955 433.548 243.035 433.405 243.177C433.263 243.319 433.183 243.512 433.183 243.713V253.07H423.827C423.626 253.07 423.433 253.15 423.291 253.292C423.148 253.435 423.068 253.628 423.068 253.829V263.944C423.068 264.145 423.148 264.338 423.291 264.48C423.433 264.622 423.626 264.702 423.827 264.702H433.184V274.058C433.184 274.259 433.264 274.452 433.406 274.595C433.548 274.737 433.741 274.817 433.942 274.817H444.057C444.258 274.817 444.451 274.737 444.594 274.595C444.736 274.452 444.816 274.259 444.816 274.058V264.701H454.172C454.373 264.701 454.566 264.621 454.708 264.479C454.851 264.337 454.93 264.144 454.93 263.943V253.829C454.93 253.628 454.851 253.435 454.708 253.292C454.566 253.15 454.373 253.07 454.172 253.07ZM453.413 263.185H444.057C443.856 263.185 443.663 263.265 443.521 263.407C443.378 263.549 443.298 263.742 443.298 263.944V273.3H434.7V263.943C434.7 263.742 434.62 263.549 434.478 263.406C434.336 263.264 434.143 263.184 433.942 263.184H424.586V254.587H433.942C434.144 254.587 434.337 254.508 434.479 254.365C434.621 254.223 434.701 254.03 434.701 253.829V244.472H443.298V253.829C443.298 254.03 443.378 254.223 443.521 254.365C443.663 254.508 443.856 254.587 444.057 254.587H453.413V263.185Z" fill="white"/>
<path d="M417 258.886C417 264.721 419.318 270.316 423.444 274.442C427.569 278.568 433.165 280.886 439 280.886C444.835 280.886 450.431 278.568 454.556 274.442C458.682 270.316 461 264.721 461 258.886C459.796 229.709 418.208 229.7 417 258.886ZM418.517 258.886C418.517 253.453 420.675 248.244 424.517 244.402C428.358 240.561 433.568 238.403 439 238.403C444.432 238.403 449.642 240.561 453.483 244.402C457.325 248.244 459.483 253.453 459.483 258.886C458.362 286.051 419.642 286.06 418.517 258.886Z" fill="white"/>
<g filter="url(#filter16_d_19_1254)">
<path d="M435.913 131.172C437.672 127.982 441.027 126 444.67 126H484.985C488.676 126 492.068 128.034 493.806 131.29L511.479 164.387C513.054 167.337 513.05 170.879 511.469 173.826L493.811 206.729C492.069 209.975 488.683 212 484.999 212H444.656C441.02 212 437.671 210.027 435.909 206.846L417.678 173.943C416.012 170.935 416.008 167.281 417.668 164.269L435.913 131.172Z" fill="url(#paint32_linear_19_1254)" shape-rendering="crispEdges"/>
<path d="M435.913 131.172C437.672 127.982 441.027 126 444.67 126H484.985C488.676 126 492.068 128.034 493.806 131.29L511.479 164.387C513.054 167.337 513.05 170.879 511.469 173.826L493.811 206.729C492.069 209.975 488.683 212 484.999 212H444.656C441.02 212 437.671 210.027 435.909 206.846L417.678 173.943C416.012 170.935 416.008 167.281 417.668 164.269L435.913 131.172Z" fill="url(#paint33_radial_19_1254)" fill-opacity="0.14" shape-rendering="crispEdges"/>
</g>
<path d="M478.894 196.102H445.766C445.563 196.102 445.368 196.022 445.224 195.878C445.081 195.734 445 195.539 445 195.336V189.633C445 189.43 445.081 189.235 445.224 189.091C445.368 188.947 445.563 188.867 445.766 188.867H478.894C479.098 188.867 479.293 188.947 479.436 189.091C479.58 189.235 479.661 189.43 479.661 189.633V195.336C479.661 195.539 479.58 195.734 479.436 195.878C479.293 196.022 479.098 196.102 478.894 196.102ZM446.533 194.569H478.128V190.399H446.533V194.569ZM464.275 171.331C464.143 171.331 464.013 171.297 463.898 171.232L454.045 165.65C453.868 165.55 453.739 165.383 453.684 165.187C453.63 164.991 453.656 164.782 453.756 164.605L462.86 148.553C462.96 148.376 463.126 148.246 463.322 148.192C463.518 148.138 463.727 148.164 463.904 148.264L473.757 153.846C473.845 153.895 473.922 153.962 473.984 154.041C474.046 154.12 474.092 154.211 474.118 154.308C474.145 154.405 474.153 154.507 474.14 154.607C474.128 154.707 474.096 154.803 474.046 154.891L472.106 158.305C472.056 158.393 471.989 158.47 471.91 158.531C471.831 158.593 471.74 158.639 471.643 158.666C471.546 158.692 471.444 158.7 471.344 158.687C471.245 158.675 471.148 158.643 471.061 158.593C470.973 158.543 470.896 158.477 470.834 158.397C470.773 158.318 470.727 158.227 470.7 158.13C470.674 158.033 470.666 157.932 470.679 157.832C470.691 157.732 470.723 157.636 470.773 157.548L472.334 154.8L463.815 149.972L455.468 164.694L463.987 169.522L467.559 163.221C467.66 163.044 467.826 162.914 468.022 162.86C468.218 162.806 468.427 162.832 468.604 162.932C468.781 163.033 468.911 163.199 468.965 163.395C469.019 163.591 468.993 163.801 468.893 163.977L464.943 170.945C464.876 171.063 464.778 171.16 464.661 171.228C464.544 171.296 464.411 171.332 464.275 171.331Z" fill="white"/>
<path d="M459.896 175.29C459.763 175.29 459.633 175.255 459.518 175.19L452.898 171.435C452.721 171.334 452.592 171.168 452.538 170.972C452.483 170.776 452.509 170.567 452.609 170.39L455.372 165.523C455.472 165.346 455.639 165.216 455.835 165.162C456.031 165.108 456.24 165.133 456.417 165.234L463.037 168.989C463.214 169.089 463.344 169.256 463.398 169.452C463.452 169.647 463.426 169.857 463.326 170.034L460.562 174.906C460.463 175.083 460.298 175.213 460.103 175.267C460.035 175.285 459.965 175.292 459.896 175.29ZM454.321 170.481L459.609 173.479L461.615 169.939L456.327 166.942L454.321 170.481ZM471.474 154.202C471.341 154.202 471.211 154.168 471.096 154.102L465.05 150.674C464.873 150.574 464.743 150.407 464.689 150.212C464.635 150.016 464.661 149.806 464.762 149.63L466.992 145.696C467.092 145.519 467.259 145.389 467.454 145.335C467.65 145.281 467.86 145.307 468.036 145.407L474.08 148.836C474.256 148.936 474.386 149.102 474.44 149.298C474.495 149.494 474.469 149.703 474.368 149.88L472.138 153.813C472.072 153.931 471.975 154.029 471.858 154.097C471.742 154.165 471.609 154.202 471.474 154.202ZM466.473 149.718L471.186 152.391L472.659 149.791L467.948 147.119L466.473 149.718Z" fill="white"/>
<path d="M474.845 150.917C474.713 150.917 474.583 150.883 474.468 150.818L466.137 146.093C465.96 145.992 465.83 145.826 465.776 145.63C465.722 145.434 465.747 145.225 465.848 145.048L467.356 142.389C467.456 142.212 467.623 142.082 467.818 142.028C468.014 141.974 468.224 141.999 468.401 142.1L476.733 146.822C476.91 146.922 477.04 147.089 477.094 147.285C477.148 147.481 477.122 147.69 477.022 147.867L475.514 150.526C475.448 150.645 475.35 150.744 475.233 150.812C475.115 150.881 474.981 150.917 474.845 150.917ZM467.559 145.136L474.559 149.105L475.311 147.779L468.311 143.811L467.559 145.136ZM472.83 186.675C472.671 186.675 472.516 186.626 472.386 186.533C472.257 186.441 472.159 186.31 472.107 186.16L470.891 182.647C470.856 182.545 470.843 182.436 470.853 182.329C470.863 182.221 470.896 182.117 470.949 182.023C471.002 181.929 471.075 181.847 471.162 181.783C471.249 181.719 471.348 181.674 471.454 181.651C473.473 181.216 475.288 180.118 476.612 178.531C477.935 176.945 478.689 174.962 478.755 172.898C478.822 170.834 478.195 168.806 476.977 167.139C475.758 165.471 474.017 164.259 472.03 163.695C471.903 163.66 471.788 163.592 471.695 163.499C471.603 163.406 471.535 163.29 471.5 163.164C471.465 163.037 471.463 162.904 471.494 162.776C471.525 162.648 471.589 162.531 471.678 162.435C472.023 162.06 472.243 161.589 472.308 161.084C472.374 160.58 472.282 160.068 472.046 159.617C471.977 159.487 471.947 159.34 471.96 159.193C471.973 159.046 472.028 158.906 472.118 158.79C472.208 158.674 472.33 158.586 472.469 158.537C472.608 158.488 472.758 158.48 472.902 158.515C476.054 159.274 478.861 161.068 480.873 163.612C482.885 166.155 483.986 169.299 483.999 172.542C484.012 175.785 482.937 178.938 480.946 181.498C478.955 184.057 476.162 185.875 473.016 186.659C472.955 186.672 472.893 186.678 472.83 186.675ZM472.61 182.928L473.32 184.978C475.921 184.175 478.203 182.574 479.843 180.401C481.483 178.228 482.396 175.593 482.454 172.872C482.512 170.15 481.712 167.48 480.166 165.239C478.621 162.998 476.409 161.301 473.844 160.388C473.856 160.512 473.862 160.638 473.862 160.765C473.863 161.386 473.719 162 473.442 162.556C475.531 163.375 477.313 164.825 478.54 166.704C479.766 168.584 480.376 170.799 480.285 173.041C480.193 175.283 479.405 177.441 478.029 179.215C476.654 180.988 474.76 182.288 472.61 182.934V182.928Z" fill="white"/>
<path d="M474.116 190.402H459.784C459.662 190.402 459.541 190.373 459.433 190.317C459.324 190.261 459.231 190.179 459.16 190.08C459.089 189.98 459.043 189.865 459.025 189.744C459.008 189.624 459.02 189.5 459.06 189.385L462.053 180.724C462.105 180.574 462.202 180.443 462.332 180.351C462.462 180.258 462.617 180.208 462.777 180.208H471.124C471.283 180.208 471.439 180.258 471.568 180.351C471.698 180.443 471.796 180.574 471.848 180.724L474.841 189.385C474.881 189.5 474.893 189.624 474.875 189.745C474.858 189.866 474.812 189.981 474.741 190.08C474.67 190.18 474.576 190.261 474.467 190.317C474.359 190.373 474.238 190.402 474.116 190.402ZM460.857 188.869H473.043L470.58 181.741H463.322L460.857 188.869Z" fill="white"/>
<path d="M461.605 185.134H452.62C452.417 185.134 452.222 185.053 452.078 184.91C451.934 184.766 451.854 184.571 451.854 184.368V180.973C451.854 180.769 451.934 180.574 452.078 180.431C452.222 180.287 452.417 180.206 452.62 180.206H462.776C462.898 180.206 463.019 180.235 463.127 180.291C463.236 180.347 463.329 180.428 463.4 180.528C463.471 180.627 463.517 180.742 463.535 180.863C463.552 180.984 463.54 181.107 463.501 181.222L462.329 184.618C462.277 184.769 462.179 184.9 462.049 184.992C461.919 185.085 461.764 185.134 461.605 185.134ZM453.386 183.601H461.058L461.701 181.739H453.386V183.601ZM469.833 164.791C469.037 164.791 468.258 164.554 467.596 164.112C466.934 163.669 466.417 163.04 466.113 162.304C465.808 161.569 465.728 160.759 465.883 159.977C466.039 159.196 466.422 158.479 466.986 157.915C467.549 157.352 468.266 156.969 469.048 156.813C469.829 156.658 470.639 156.737 471.375 157.042C472.111 157.347 472.74 157.863 473.182 158.526C473.625 159.188 473.861 159.967 473.861 160.763C473.86 161.831 473.435 162.855 472.68 163.61C471.925 164.365 470.901 164.79 469.833 164.791ZM469.833 158.269C469.34 158.269 468.858 158.416 468.447 158.69C468.037 158.964 467.717 159.354 467.529 159.809C467.34 160.265 467.29 160.767 467.387 161.251C467.483 161.735 467.721 162.179 468.07 162.528C468.419 162.877 468.863 163.115 469.347 163.211C469.831 163.307 470.333 163.257 470.789 163.069C471.244 162.88 471.634 162.56 471.908 162.149C472.182 161.739 472.328 161.257 472.328 160.763C472.327 160.102 472.064 159.468 471.597 159C471.129 158.533 470.495 158.27 469.833 158.269Z" fill="white"/>
<g filter="url(#filter17_d_19_1254)">
<path d="M180.681 39.2099C182.434 35.9982 185.801 34 189.459 34H229.189C232.895 34 236.298 36.0501 238.03 39.327L255.524 72.424C257.073 75.3542 257.069 78.8615 255.514 81.7885L238.034 114.692C236.299 117.958 232.902 120 229.203 120H189.445C185.794 120 182.433 118.01 180.677 114.809L162.631 81.9056C160.992 78.9168 160.988 75.2988 162.621 72.3066L180.681 39.2099Z" fill="url(#paint34_linear_19_1254)" shape-rendering="crispEdges"/>
<path d="M180.681 39.2099C182.434 35.9982 185.801 34 189.459 34H229.189C232.895 34 236.298 36.0501 238.03 39.327L255.524 72.424C257.073 75.3542 257.069 78.8615 255.514 81.7885L238.034 114.692C236.299 117.958 232.902 120 229.203 120H189.445C185.794 120 182.433 118.01 180.677 114.809L162.631 81.9056C160.992 78.9168 160.988 75.2988 162.621 72.3066L180.681 39.2099Z" fill="url(#paint35_radial_19_1254)" fill-opacity="0.14" shape-rendering="crispEdges"/>
</g>
<path d="M230.598 93.1965C229.976 93.1958 229.366 93.3665 228.835 93.69L215.07 79.9248C215.047 79.9014 215.021 79.8794 214.995 79.8591C216.073 78.5311 216.721 76.8401 216.721 75C216.721 73.1623 216.075 71.4734 214.999 70.1462L224.382 60.7631C225.39 61.5302 226.645 61.987 228.006 61.987C231.311 61.987 234 59.2984 234 55.9935C234 52.6887 231.311 50 228.006 50C224.702 50 222.013 52.6887 222.013 55.9935C222.013 57.3545 222.47 58.6104 223.237 59.6176L213.854 69.0008C212.527 67.9249 210.838 67.2786 209 67.2786C207.162 67.2786 205.473 67.9249 204.146 69.0009L199.813 64.6679C200.137 64.1368 200.307 63.5268 200.307 62.905C200.307 61.0293 198.781 59.5032 196.905 59.5032C195.029 59.5032 193.503 61.0293 193.503 62.905C193.503 64.7807 195.029 66.3067 196.905 66.3067C197.527 66.3074 198.137 66.1367 198.668 65.8133L203.001 70.1462C201.925 71.4734 201.279 73.1623 201.279 75C201.278 76.0104 201.477 77.011 201.863 77.9445L191.561 83.5252C190.778 82.5734 189.591 81.9654 188.266 81.9654C185.914 81.9654 184 83.8791 184 86.2311C184 88.5832 185.914 90.4968 188.266 90.4968C190.618 90.4968 192.531 88.5832 192.531 86.2311C192.531 85.7843 192.462 85.3536 192.334 84.9486L202.637 79.3677C204.031 81.3914 206.363 82.7214 209 82.7214C209.296 82.7214 209.587 82.703 209.875 82.6704L210.949 87.5023C209.827 88.059 209.054 89.216 209.054 90.5508C209.054 92.4265 210.58 93.9525 212.456 93.9525C214.331 93.9525 215.857 92.4265 215.857 90.5508C215.857 88.6999 214.371 87.1906 212.53 87.1509L211.456 82.3186C212.33 82.0245 213.144 81.5762 213.859 80.9949C213.879 81.021 213.901 81.0463 213.925 81.0703L227.69 94.8353C227.367 95.3664 227.196 95.9764 227.197 96.5983C227.197 98.474 228.723 100 230.598 100C232.474 100 234 98.474 234 96.5983C234 94.7226 232.474 93.1965 230.598 93.1965ZM188.266 88.8769C186.807 88.8769 185.62 87.69 185.62 86.2311C185.62 84.7722 186.807 83.5853 188.266 83.5853C189.725 83.5853 190.911 84.7722 190.911 86.2311C190.911 87.69 189.725 88.8769 188.266 88.8769ZM214.238 90.5508C214.238 91.5333 213.438 92.3326 212.456 92.3326C211.473 92.3326 210.674 91.5333 210.674 90.5508C210.674 89.5682 211.473 88.7689 212.456 88.7689C213.438 88.7689 214.238 89.5682 214.238 90.5508ZM228.006 51.6199C230.418 51.6199 232.38 53.5819 232.38 55.9935C232.38 58.4052 230.418 60.3672 228.006 60.3672C225.595 60.3672 223.633 58.4052 223.633 55.9935C223.633 53.5819 225.595 51.6199 228.006 51.6199ZM195.123 62.905C195.123 61.9225 195.922 61.1231 196.905 61.1231C197.887 61.1231 198.687 61.9225 198.687 62.905C198.687 63.8875 197.887 64.6868 196.905 64.6868C195.922 64.6868 195.123 63.8875 195.123 62.905ZM209 81.1015C205.636 81.1015 202.898 78.3644 202.898 75C202.898 71.6356 205.636 68.8985 209 68.8985C212.364 68.8985 215.102 71.6356 215.102 75C215.102 78.3644 212.364 81.1015 209 81.1015ZM230.598 98.3801C229.616 98.3801 228.816 97.5808 228.816 96.5983C228.816 95.6158 229.616 94.8164 230.598 94.8164C231.581 94.8164 232.38 95.6158 232.38 96.5983C232.38 97.5808 231.581 98.3801 230.598 98.3801Z" fill="white"/>
<path d="M208.999 70.7343C208.785 70.7343 208.579 70.8196 208.427 70.9715C208.275 71.1234 208.189 71.3294 208.189 71.5442C208.189 71.759 208.275 71.9651 208.427 72.117C208.579 72.2688 208.785 72.3542 208.999 72.3542C210.458 72.3542 211.645 73.5411 211.645 75C211.645 75.2148 211.731 75.4208 211.882 75.5727C212.034 75.7246 212.24 75.8099 212.455 75.8099C212.67 75.8099 212.876 75.7246 213.028 75.5727C213.18 75.4208 213.265 75.2148 213.265 75C213.265 72.6479 211.351 70.7343 208.999 70.7343ZM228.006 55.0756C228.512 55.0756 228.924 55.4873 228.924 55.9935C228.924 56.2083 229.009 56.4143 229.161 56.5662C229.313 56.7181 229.519 56.8034 229.734 56.8034C229.949 56.8034 230.155 56.7181 230.306 56.5662C230.458 56.4143 230.544 56.2083 230.544 55.9935C230.544 54.5941 229.405 53.4557 228.006 53.4557C227.791 53.4557 227.585 53.541 227.433 53.6929C227.281 53.8448 227.196 54.0508 227.196 54.2656C227.196 54.4804 227.281 54.6864 227.433 54.8383C227.585 54.9902 227.791 55.0756 228.006 55.0756Z" fill="white"/>
<defs>
<filter id="filter0_d_19_1254" x="354.717" y="281" width="65.6094" height="61" filterUnits="userSpaceOnUse" color-interpolation-filters="sRGB">
<feFlood flood-opacity="0" result="BackgroundImageFix"/>
<feColorMatrix in="SourceAlpha" type="matrix" values="0 0 0 0 0 0 0 0 0 0 0 0 0 0 0 0 0 0 127 0" result="hardAlpha"/>
<feOffset dy="4"/>
<feGaussianBlur stdDeviation="5.5"/>
<feComposite in2="hardAlpha" operator="out"/>
<feColorMatrix type="matrix" values="0 0 0 0 0.607085 0 0 0 0 0.606191 0 0 0 0 0.606191 0 0 0 0.25 0"/>
<feBlend mode="normal" in2="BackgroundImageFix" result="effect1_dropShadow_19_1254"/>
<feBlend mode="normal" in="SourceGraphic" in2="effect1_dropShadow_19_1254" result="shape"/>
</filter>
<filter id="filter1_d_19_1254" x="237.717" y="433" width="65.6094" height="61" filterUnits="userSpaceOnUse" color-interpolation-filters="sRGB">
<feFlood flood-opacity="0" result="BackgroundImageFix"/>
<feColorMatrix in="SourceAlpha" type="matrix" values="0 0 0 0 0 0 0 0 0 0 0 0 0 0 0 0 0 0 127 0" result="hardAlpha"/>
<feOffset dy="4"/>
<feGaussianBlur stdDeviation="5.5"/>
<feComposite in2="hardAlpha" operator="out"/>
<feColorMatrix type="matrix" values="0 0 0 0 0.607085 0 0 0 0 0.606191 0 0 0 0 0.606191 0 0 0 0.25 0"/>
<feBlend mode="normal" in2="BackgroundImageFix" result="effect1_dropShadow_19_1254"/>
<feBlend mode="normal" in="SourceGraphic" in2="effect1_dropShadow_19_1254" result="shape"/>
</filter>
<filter id="filter2_d_19_1254" x="75.7168" y="179" width="65.6094" height="61" filterUnits="userSpaceOnUse" color-interpolation-filters="sRGB">
<feFlood flood-opacity="0" result="BackgroundImageFix"/>
<feColorMatrix in="SourceAlpha" type="matrix" values="0 0 0 0 0 0 0 0 0 0 0 0 0 0 0 0 0 0 127 0" result="hardAlpha"/>
<feOffset dy="4"/>
<feGaussianBlur stdDeviation="5.5"/>
<feComposite in2="hardAlpha" operator="out"/>
<feColorMatrix type="matrix" values="0 0 0 0 0.607085 0 0 0 0 0.606191 0 0 0 0 0.606191 0 0 0 0.25 0"/>
<feBlend mode="normal" in2="BackgroundImageFix" result="effect1_dropShadow_19_1254"/>
<feBlend mode="normal" in="SourceGraphic" in2="effect1_dropShadow_19_1254" result="shape"/>
</filter>
<filter id="filter3_d_19_1254" x="419.717" y="76" width="65.6094" height="61" filterUnits="userSpaceOnUse" color-interpolation-filters="sRGB">
<feFlood flood-opacity="0" result="BackgroundImageFix"/>
<feColorMatrix in="SourceAlpha" type="matrix" values="0 0 0 0 0 0 0 0 0 0 0 0 0 0 0 0 0 0 127 0" result="hardAlpha"/>
<feOffset dy="4"/>
<feGaussianBlur stdDeviation="5.5"/>
<feComposite in2="hardAlpha" operator="out"/>
<feColorMatrix type="matrix" values="0 0 0 0 0.607085 0 0 0 0 0.606191 0 0 0 0 0.606191 0 0 0 0.25 0"/>
<feBlend mode="normal" in2="BackgroundImageFix" result="effect1_dropShadow_19_1254"/>
<feBlend mode="normal" in="SourceGraphic" in2="effect1_dropShadow_19_1254" result="shape"/>
</filter>
<filter id="filter4_d_19_1254" x="389.717" y="307" width="65.6094" height="61" filterUnits="userSpaceOnUse" color-interpolation-filters="sRGB">
<feFlood flood-opacity="0" result="BackgroundImageFix"/>
<feColorMatrix in="SourceAlpha" type="matrix" values="0 0 0 0 0 0 0 0 0 0 0 0 0 0 0 0 0 0 127 0" result="hardAlpha"/>
<feOffset dy="4"/>
<feGaussianBlur stdDeviation="5.5"/>
<feComposite in2="hardAlpha" operator="out"/>
<feColorMatrix type="matrix" values="0 0 0 0 0.607085 0 0 0 0 0.606191 0 0 0 0 0.606191 0 0 0 0.25 0"/>
<feBlend mode="normal" in2="BackgroundImageFix" result="effect1_dropShadow_19_1254"/>
<feBlend mode="normal" in="SourceGraphic" in2="effect1_dropShadow_19_1254" result="shape"/>
</filter>
<filter id="filter5_d_19_1254" x="107.295" y="23" width="48.4258" height="45" filterUnits="userSpaceOnUse" color-interpolation-filters="sRGB">
<feFlood flood-opacity="0" result="BackgroundImageFix"/>
<feColorMatrix in="SourceAlpha" type="matrix" values="0 0 0 0 0 0 0 0 0 0 0 0 0 0 0 0 0 0 127 0" result="hardAlpha"/>
<feOffset dy="4"/>
<feGaussianBlur stdDeviation="5.5"/>
<feComposite in2="hardAlpha" operator="out"/>
<feColorMatrix type="matrix" values="0 0 0 0 0.607085 0 0 0 0 0.606191 0 0 0 0 0.606191 0 0 0 0.25 0"/>
<feBlend mode="normal" in2="BackgroundImageFix" result="effect1_dropShadow_19_1254"/>
<feBlend mode="normal" in="SourceGraphic" in2="effect1_dropShadow_19_1254" result="shape"/>
</filter>
<filter id="filter6_d_19_1254" x="24.7168" y="327" width="65.6094" height="61" filterUnits="userSpaceOnUse" color-interpolation-filters="sRGB">
<feFlood flood-opacity="0" result="BackgroundImageFix"/>
<feColorMatrix in="SourceAlpha" type="matrix" values="0 0 0 0 0 0 0 0 0 0 0 0 0 0 0 0 0 0 127 0" result="hardAlpha"/>
<feOffset dy="4"/>
<feGaussianBlur stdDeviation="5.5"/>
<feComposite in2="hardAlpha" operator="out"/>
<feColorMatrix type="matrix" values="0 0 0 0 0.607085 0 0 0 0 0.606191 0 0 0 0 0.606191 0 0 0 0.25 0"/>
<feBlend mode="normal" in2="BackgroundImageFix" result="effect1_dropShadow_19_1254"/>
<feBlend mode="normal" in="SourceGraphic" in2="effect1_dropShadow_19_1254" result="shape"/>
</filter>
<filter id="filter7_d_19_1254" x="272.289" y="414" width="50.4395" height="47" filterUnits="userSpaceOnUse" color-interpolation-filters="sRGB">
<feFlood flood-opacity="0" result="BackgroundImageFix"/>
<feColorMatrix in="SourceAlpha" type="matrix" values="0 0 0 0 0 0 0 0 0 0 0 0 0 0 0 0 0 0 127 0" result="hardAlpha"/>
<feOffset dy="4"/>
<feGaussianBlur stdDeviation="5.5"/>
<feComposite in2="hardAlpha" operator="out"/>
<feColorMatrix type="matrix" values="0 0 0 0 0.607085 0 0 0 0 0.606191 0 0 0 0 0.606191 0 0 0 0.25 0"/>
<feBlend mode="normal" in2="BackgroundImageFix" result="effect1_dropShadow_19_1254"/>
<feBlend mode="normal" in="SourceGraphic" in2="effect1_dropShadow_19_1254" result="shape"/>
</filter>
<filter id="filter8_d_19_1254" x="470.289" y="222" width="50.4395" height="47" filterUnits="userSpaceOnUse" color-interpolation-filters="sRGB">
<feFlood flood-opacity="0" result="BackgroundImageFix"/>
<feColorMatrix in="SourceAlpha" type="matrix" values="0 0 0 0 0 0 0 0 0 0 0 0 0 0 0 0 0 0 127 0" result="hardAlpha"/>
<feOffset dy="4"/>
<feGaussianBlur stdDeviation="5.5"/>
<feComposite in2="hardAlpha" operator="out"/>
<feColorMatrix type="matrix" values="0 0 0 0 0.607085 0 0 0 0 0.606191 0 0 0 0 0.606191 0 0 0 0.25 0"/>
<feBlend mode="normal" in2="BackgroundImageFix" result="effect1_dropShadow_19_1254"/>
<feBlend mode="normal" in="SourceGraphic" in2="effect1_dropShadow_19_1254" result="shape"/>
</filter>
<filter id="filter9_d_19_1254" x="107.289" y="158" width="50.4395" height="47" filterUnits="userSpaceOnUse" color-interpolation-filters="sRGB">
<feFlood flood-opacity="0" result="BackgroundImageFix"/>
<feColorMatrix in="SourceAlpha" type="matrix" values="0 0 0 0 0 0 0 0 0 0 0 0 0 0 0 0 0 0 127 0" result="hardAlpha"/>
<feOffset dy="4"/>
<feGaussianBlur stdDeviation="5.5"/>
<feComposite in2="hardAlpha" operator="out"/>
<feColorMatrix type="matrix" values="0 0 0 0 0.607085 0 0 0 0 0.606191 0 0 0 0 0.606191 0 0 0 0.25 0"/>
<feBlend mode="normal" in2="BackgroundImageFix" result="effect1_dropShadow_19_1254"/>
<feBlend mode="normal" in="SourceGraphic" in2="effect1_dropShadow_19_1254" result="shape"/>
</filter>
<filter id="filter10_d_19_1254" x="128.717" y="0" width="65.6094" height="61" filterUnits="userSpaceOnUse" color-interpolation-filters="sRGB">
<feFlood flood-opacity="0" result="BackgroundImageFix"/>
<feColorMatrix in="SourceAlpha" type="matrix" values="0 0 0 0 0 0 0 0 0 0 0 0 0 0 0 0 0 0 127 0" result="hardAlpha"/>
<feOffset dy="4"/>
<feGaussianBlur stdDeviation="5.5"/>
<feComposite in2="hardAlpha" operator="out"/>
<feColorMatrix type="matrix" values="0 0 0 0 0.607085 0 0 0 0 0.606191 0 0 0 0 0.606191 0 0 0 0.25 0"/>
<feBlend mode="normal" in2="BackgroundImageFix" result="effect1_dropShadow_19_1254"/>
<feBlend mode="normal" in="SourceGraphic" in2="effect1_dropShadow_19_1254" result="shape"/>
</filter>
<filter id="filter11_d_19_1254" x="143.42" y="118" width="228.244" height="204" filterUnits="userSpaceOnUse" color-interpolation-filters="sRGB">
<feFlood flood-opacity="0" result="BackgroundImageFix"/>
<feColorMatrix in="SourceAlpha" type="matrix" values="0 0 0 0 0 0 0 0 0 0 0 0 0 0 0 0 0 0 127 0" result="hardAlpha"/>
<feOffset dy="4"/>
<feGaussianBlur stdDeviation="5.5"/>
<feComposite in2="hardAlpha" operator="out"/>
<feColorMatrix type="matrix" values="0 0 0 0 0.607085 0 0 0 0 0.606191 0 0 0 0 0.606191 0 0 0 0.25 0"/>
<feBlend mode="normal" in2="BackgroundImageFix" result="effect1_dropShadow_19_1254"/>
<feBlend mode="normal" in="SourceGraphic" in2="effect1_dropShadow_19_1254" result="shape"/>
</filter>
<filter id="filter12_d_19_1254" x="62.4043" y="262" width="156.273" height="142" filterUnits="userSpaceOnUse" color-interpolation-filters="sRGB">
<feFlood flood-opacity="0" result="BackgroundImageFix"/>
<feColorMatrix in="SourceAlpha" type="matrix" values="0 0 0 0 0 0 0 0 0 0 0 0 0 0 0 0 0 0 127 0" result="hardAlpha"/>
<feOffset dy="4"/>
<feGaussianBlur stdDeviation="5.5"/>
<feComposite in2="hardAlpha" operator="out"/>
<feColorMatrix type="matrix" values="0 0 0 0 0.607085 0 0 0 0 0.606191 0 0 0 0 0.606191 0 0 0 0.25 0"/>
<feBlend mode="normal" in2="BackgroundImageFix" result="effect1_dropShadow_19_1254"/>
<feBlend mode="normal" in="SourceGraphic" in2="effect1_dropShadow_19_1254" result="shape"/>
</filter>
<filter id="filter13_d_19_1254" x="0.398438" y="203" width="117.285" height="108" filterUnits="userSpaceOnUse" color-interpolation-filters="sRGB">
<feFlood flood-opacity="0" result="BackgroundImageFix"/>
<feColorMatrix in="SourceAlpha" type="matrix" values="0 0 0 0 0 0 0 0 0 0 0 0 0 0 0 0 0 0 127 0" result="hardAlpha"/>
<feOffset dy="4"/>
<feGaussianBlur stdDeviation="5.5"/>
<feComposite in2="hardAlpha" operator="out"/>
<feColorMatrix type="matrix" values="0 0 0 0 0.607085 0 0 0 0 0.606191 0 0 0 0 0.606191 0 0 0 0.25 0"/>
<feBlend mode="normal" in2="BackgroundImageFix" result="effect1_dropShadow_19_1254"/>
<feBlend mode="normal" in="SourceGraphic" in2="effect1_dropShadow_19_1254" result="shape"/>
</filter>
<filter id="filter14_d_19_1254" x="309.412" y="62" width="137.258" height="125" filterUnits="userSpaceOnUse" color-interpolation-filters="sRGB">
<feFlood flood-opacity="0" result="BackgroundImageFix"/>
<feColorMatrix in="SourceAlpha" type="matrix" values="0 0 0 0 0 0 0 0 0 0 0 0 0 0 0 0 0 0 127 0" result="hardAlpha"/>
<feOffset dy="4"/>
<feGaussianBlur stdDeviation="5.5"/>
<feComposite in2="hardAlpha" operator="out"/>
<feColorMatrix type="matrix" values="0 0 0 0 0.607085 0 0 0 0 0.606191 0 0 0 0 0.606191 0 0 0 0.25 0"/>
<feBlend mode="normal" in2="BackgroundImageFix" result="effect1_dropShadow_19_1254"/>
<feBlend mode="normal" in="SourceGraphic" in2="effect1_dropShadow_19_1254" result="shape"/>
</filter>
<filter id="filter15_d_19_1254" x="379.426" y="209" width="118.232" height="108" filterUnits="userSpaceOnUse" color-interpolation-filters="sRGB">
<feFlood flood-opacity="0" result="BackgroundImageFix"/>
<feColorMatrix in="SourceAlpha" type="matrix" values="0 0 0 0 0 0 0 0 0 0 0 0 0 0 0 0 0 0 127 0" result="hardAlpha"/>
<feOffset dy="4"/>
<feGaussianBlur stdDeviation="5.5"/>
<feComposite in2="hardAlpha" operator="out"/>
<feColorMatrix type="matrix" values="0 0 0 0 0.607085 0 0 0 0 0.606191 0 0 0 0 0.606191 0 0 0 0.25 0"/>
<feBlend mode="normal" in2="BackgroundImageFix" result="effect1_dropShadow_19_1254"/>
<feBlend mode="normal" in="SourceGraphic" in2="effect1_dropShadow_19_1254" result="shape"/>
</filter>
<filter id="filter16_d_19_1254" x="405.426" y="119" width="118.232" height="108" filterUnits="userSpaceOnUse" color-interpolation-filters="sRGB">
<feFlood flood-opacity="0" result="BackgroundImageFix"/>
<feColorMatrix in="SourceAlpha" type="matrix" values="0 0 0 0 0 0 0 0 0 0 0 0 0 0 0 0 0 0 127 0" result="hardAlpha"/>
<feOffset dy="4"/>
<feGaussianBlur stdDeviation="5.5"/>
<feComposite in2="hardAlpha" operator="out"/>
<feColorMatrix type="matrix" values="0 0 0 0 0.607085 0 0 0 0 0.606191 0 0 0 0 0.606191 0 0 0 0.25 0"/>
<feBlend mode="normal" in2="BackgroundImageFix" result="effect1_dropShadow_19_1254"/>
<feBlend mode="normal" in="SourceGraphic" in2="effect1_dropShadow_19_1254" result="shape"/>
</filter>
<filter id="filter17_d_19_1254" x="150.398" y="27" width="117.285" height="108" filterUnits="userSpaceOnUse" color-interpolation-filters="sRGB">
<feFlood flood-opacity="0" result="BackgroundImageFix"/>
<feColorMatrix in="SourceAlpha" type="matrix" values="0 0 0 0 0 0 0 0 0 0 0 0 0 0 0 0 0 0 127 0" result="hardAlpha"/>
<feOffset dy="4"/>
<feGaussianBlur stdDeviation="5.5"/>
<feComposite in2="hardAlpha" operator="out"/>
<feColorMatrix type="matrix" values="0 0 0 0 0.607085 0 0 0 0 0.606191 0 0 0 0 0.606191 0 0 0 0.25 0"/>
<feBlend mode="normal" in2="BackgroundImageFix" result="effect1_dropShadow_19_1254"/>
<feBlend mode="normal" in="SourceGraphic" in2="effect1_dropShadow_19_1254" result="shape"/>
</filter>
<linearGradient id="paint0_linear_19_1254" x1="378.757" y1="292.45" x2="396.079" y2="325.835" gradientUnits="userSpaceOnUse">
<stop stop-color="#094F0D"/>
<stop offset="0.499936" stop-color="#09640E"/>
<stop offset="0.99996" stop-color="#013F05"/>
</linearGradient>
<radialGradient id="paint1_radial_19_1254" cx="0" cy="0" r="1" gradientUnits="userSpaceOnUse" gradientTransform="translate(373.229 314.436) rotate(-27.1802) scale(64.7501 35.5905)">
<stop stop-color="white"/>
<stop offset="0.0676233" stop-color="white"/>
<stop offset="0.392342" stop-color="white"/>
<stop offset="0.590239" stop-color="white"/>
</radialGradient>
<linearGradient id="paint2_linear_19_1254" x1="261.757" y1="444.45" x2="279.079" y2="477.835" gradientUnits="userSpaceOnUse">
<stop stop-color="#094F0D"/>
<stop offset="0.499936" stop-color="#09640E"/>
<stop offset="0.99996" stop-color="#013F05"/>
</linearGradient>
<radialGradient id="paint3_radial_19_1254" cx="0" cy="0" r="1" gradientUnits="userSpaceOnUse" gradientTransform="translate(256.229 466.436) rotate(-27.1802) scale(64.7501 35.5905)">
<stop stop-color="white"/>
<stop offset="0.0676233" stop-color="white"/>
<stop offset="0.392342" stop-color="white"/>
<stop offset="0.590239" stop-color="white"/>
</radialGradient>
<linearGradient id="paint4_linear_19_1254" x1="99.7571" y1="190.45" x2="117.079" y2="223.835" gradientUnits="userSpaceOnUse">
<stop stop-color="#094F0D"/>
<stop offset="0.499936" stop-color="#09640E"/>
<stop offset="0.99996" stop-color="#013F05"/>
</linearGradient>
<radialGradient id="paint5_radial_19_1254" cx="0" cy="0" r="1" gradientUnits="userSpaceOnUse" gradientTransform="translate(94.2286 212.436) rotate(-27.1802) scale(64.7501 35.5905)">
<stop stop-color="white"/>
<stop offset="0.0676233" stop-color="white"/>
<stop offset="0.392342" stop-color="white"/>
<stop offset="0.590239" stop-color="white"/>
</radialGradient>
<linearGradient id="paint6_linear_19_1254" x1="443.757" y1="87.4497" x2="461.079" y2="120.835" gradientUnits="userSpaceOnUse">
<stop stop-color="#5C55FF" stop-opacity="0.74"/>
<stop offset="0.48431" stop-color="#372FD6"/>
<stop offset="0.99996" stop-color="#0B0263"/>
</linearGradient>
<radialGradient id="paint7_radial_19_1254" cx="0" cy="0" r="1" gradientUnits="userSpaceOnUse" gradientTransform="translate(438.229 109.436) rotate(-27.1802) scale(64.7501 35.5905)">
<stop stop-color="white"/>
<stop offset="0.0676233" stop-color="white"/>
<stop offset="0.392342" stop-color="white"/>
<stop offset="0.590239" stop-color="white"/>
</radialGradient>
<linearGradient id="paint8_linear_19_1254" x1="413.757" y1="318.45" x2="431.079" y2="351.835" gradientUnits="userSpaceOnUse">
<stop stop-color="#5C55FF" stop-opacity="0.74"/>
<stop offset="0.48431" stop-color="#372FD6"/>
<stop offset="0.99996" stop-color="#0B0263"/>
</linearGradient>
<radialGradient id="paint9_radial_19_1254" cx="0" cy="0" r="1" gradientUnits="userSpaceOnUse" gradientTransform="translate(408.229 340.436) rotate(-27.1802) scale(64.7501 35.5905)">
<stop stop-color="white"/>
<stop offset="0.0676233" stop-color="white"/>
<stop offset="0.392342" stop-color="white"/>
<stop offset="0.590239" stop-color="white"/>
</radialGradient>
<linearGradient id="paint10_linear_19_1254" x1="126.254" y1="32.6242" x2="136.368" y2="52.4557" gradientUnits="userSpaceOnUse">
<stop stop-color="#5C55FF" stop-opacity="0.74"/>
<stop offset="0.48431" stop-color="#372FD6"/>
<stop offset="0.99996" stop-color="#0B0263"/>
</linearGradient>
<radialGradient id="paint11_radial_19_1254" cx="0" cy="0" r="1" gradientUnits="userSpaceOnUse" gradientTransform="translate(122.937 45.5906) rotate(-26.7808) scale(38.7124 21.0639)">
<stop stop-color="white"/>
<stop offset="0.0676233" stop-color="white"/>
<stop offset="0.392342" stop-color="white"/>
<stop offset="0.590239" stop-color="white"/>
</radialGradient>
<linearGradient id="paint12_linear_19_1254" x1="48.7571" y1="338.45" x2="66.0793" y2="371.835" gradientUnits="userSpaceOnUse">
<stop stop-color="#5C55FF" stop-opacity="0.74"/>
<stop offset="0.48431" stop-color="#372FD6"/>
<stop offset="0.99996" stop-color="#0B0263"/>
</linearGradient>
<radialGradient id="paint13_radial_19_1254" cx="0" cy="0" r="1" gradientUnits="userSpaceOnUse" gradientTransform="translate(43.2286 360.436) rotate(-27.1802) scale(64.7501 35.5905)">
<stop stop-color="white"/>
<stop offset="0.0676233" stop-color="white"/>
<stop offset="0.392342" stop-color="white"/>
<stop offset="0.590239" stop-color="white"/>
</radialGradient>
<linearGradient id="paint14_linear_19_1254" x1="291.866" y1="423.852" x2="302.936" y2="445.301" gradientUnits="userSpaceOnUse">
<stop stop-color="#5C55FF" stop-opacity="0.74"/>
<stop offset="0.48431" stop-color="#372FD6"/>
<stop offset="0.99996" stop-color="#0B0263"/>
</linearGradient>
<radialGradient id="paint15_radial_19_1254" cx="0" cy="0" r="1" gradientUnits="userSpaceOnUse" gradientTransform="translate(288.303 437.946) rotate(-27.0565) scale(41.6817 22.8396)">
<stop stop-color="white"/>
<stop offset="0.0676233" stop-color="white"/>
<stop offset="0.392342" stop-color="white"/>
<stop offset="0.590239" stop-color="white"/>
</radialGradient>
<linearGradient id="paint16_linear_19_1254" x1="489.866" y1="231.852" x2="500.936" y2="253.301" gradientUnits="userSpaceOnUse">
<stop stop-color="#5C55FF" stop-opacity="0.74"/>
<stop offset="0.48431" stop-color="#372FD6"/>
<stop offset="0.99996" stop-color="#0B0263"/>
</linearGradient>
<radialGradient id="paint17_radial_19_1254" cx="0" cy="0" r="1" gradientUnits="userSpaceOnUse" gradientTransform="translate(486.303 245.946) rotate(-27.0565) scale(41.6817 22.8396)">
<stop stop-color="white"/>
<stop offset="0.0676233" stop-color="white"/>
<stop offset="0.392342" stop-color="white"/>
<stop offset="0.590239" stop-color="white"/>
</radialGradient>
<linearGradient id="paint18_linear_19_1254" x1="126.866" y1="167.852" x2="137.936" y2="189.301" gradientUnits="userSpaceOnUse">
<stop stop-color="#5C55FF" stop-opacity="0.74"/>
<stop offset="0.48431" stop-color="#372FD6"/>
<stop offset="0.99996" stop-color="#0B0263"/>
</linearGradient>
<radialGradient id="paint19_radial_19_1254" cx="0" cy="0" r="1" gradientUnits="userSpaceOnUse" gradientTransform="translate(123.303 181.946) rotate(-27.0565) scale(41.6817 22.8396)">
<stop stop-color="white"/>
<stop offset="0.0676233" stop-color="white"/>
<stop offset="0.392342" stop-color="white"/>
<stop offset="0.590239" stop-color="white"/>
</radialGradient>
<linearGradient id="paint20_linear_19_1254" x1="152.757" y1="11.4497" x2="170.079" y2="44.8352" gradientUnits="userSpaceOnUse">
<stop stop-color="#094F0D"/>
<stop offset="0.499936" stop-color="#09640E"/>
<stop offset="0.99996" stop-color="#013F05"/>
</linearGradient>
<radialGradient id="paint21_radial_19_1254" cx="0" cy="0" r="1" gradientUnits="userSpaceOnUse" gradientTransform="translate(147.229 33.4362) rotate(-27.1802) scale(64.7501 35.5905)">
<stop stop-color="white"/>
<stop offset="0.0676233" stop-color="white"/>
<stop offset="0.392342" stop-color="white"/>
<stop offset="0.590239" stop-color="white"/>
</radialGradient>
<linearGradient id="paint22_linear_19_1254" x1="216.894" y1="145.765" x2="297.953" y2="301.248" gradientUnits="userSpaceOnUse">
<stop stop-color="#5C55FF" stop-opacity="0.74"/>
<stop offset="0.48431" stop-color="#372FD6"/>
<stop offset="0.99996" stop-color="#0B0263"/>
</linearGradient>
<radialGradient id="paint23_radial_19_1254" cx="0" cy="0" r="1" gradientUnits="userSpaceOnUse" gradientTransform="translate(191.217 248.369) rotate(-27.2915) scale(301.029 165.923)">
<stop stop-color="white"/>
<stop offset="0.0676233" stop-color="white"/>
<stop offset="0.392342" stop-color="white"/>
<stop offset="0.590239" stop-color="white"/>
</radialGradient>
<linearGradient id="paint24_linear_19_1254" x1="113.883" y1="282.691" x2="167.506" y2="384.951" gradientUnits="userSpaceOnUse">
<stop stop-color="#5C55FF" stop-opacity="0.74"/>
<stop offset="0.48431" stop-color="#372FD6"/>
<stop offset="0.99996" stop-color="#0B0263"/>
</linearGradient>
<radialGradient id="paint25_radial_19_1254" cx="0" cy="0" r="1" gradientUnits="userSpaceOnUse" gradientTransform="translate(97.0514 350.342) rotate(-27.428) scale(197.569 109.265)">
<stop stop-color="white"/>
<stop offset="0.0676233" stop-color="white"/>
<stop offset="0.392342" stop-color="white"/>
<stop offset="0.590239" stop-color="white"/>
</radialGradient>
<linearGradient id="paint26_linear_19_1254" x1="39.96" y1="219.812" x2="78.4309" y2="293.039" gradientUnits="userSpaceOnUse">
<stop stop-color="#5C55FF" stop-opacity="0.74"/>
<stop offset="0.48431" stop-color="#372FD6"/>
<stop offset="0.99996" stop-color="#0B0263"/>
</linearGradient>
<radialGradient id="paint27_radial_19_1254" cx="0" cy="0" r="1" gradientUnits="userSpaceOnUse" gradientTransform="translate(27.92 268.295) rotate(-27.4718) scale(141.383 78.2754)">
<stop stop-color="white"/>
<stop offset="0.0676233" stop-color="white"/>
<stop offset="0.392342" stop-color="white"/>
<stop offset="0.590239" stop-color="white"/>
</radialGradient>
<linearGradient id="paint28_linear_19_1254" x1="355.074" y1="80.7517" x2="401.01" y2="168.655" gradientUnits="userSpaceOnUse">
<stop stop-color="#5C55FF" stop-opacity="0.74"/>
<stop offset="0.48431" stop-color="#372FD6"/>
<stop offset="0.99996" stop-color="#0B0263"/>
</linearGradient>
<radialGradient id="paint29_radial_19_1254" cx="0" cy="0" r="1" gradientUnits="userSpaceOnUse" gradientTransform="translate(340.577 138.819) rotate(-27.3469) scale(170.044 93.8545)">
<stop stop-color="white"/>
<stop offset="0.0676233" stop-color="white"/>
<stop offset="0.392342" stop-color="white"/>
<stop offset="0.590239" stop-color="white"/>
</radialGradient>
<linearGradient id="paint30_linear_19_1254" x1="419.266" y1="225.812" x2="457.514" y2="299.359" gradientUnits="userSpaceOnUse">
<stop stop-color="#5C55FF" stop-opacity="0.74"/>
<stop offset="0.48431" stop-color="#372FD6"/>
<stop offset="0.99996" stop-color="#0B0263"/>
</linearGradient>
<radialGradient id="paint31_radial_19_1254" cx="0" cy="0" r="1" gradientUnits="userSpaceOnUse" gradientTransform="translate(407.103 274.295) rotate(-27.2344) scale(142.519 78.4434)">
<stop stop-color="white"/>
<stop offset="0.0676233" stop-color="white"/>
<stop offset="0.392342" stop-color="white"/>
<stop offset="0.590239" stop-color="white"/>
</radialGradient>
<linearGradient id="paint32_linear_19_1254" x1="445.266" y1="135.812" x2="483.514" y2="209.359" gradientUnits="userSpaceOnUse">
<stop stop-color="#5C55FF" stop-opacity="0.74"/>
<stop offset="0.48431" stop-color="#372FD6"/>
<stop offset="0.99996" stop-color="#0B0263"/>
</linearGradient>
<radialGradient id="paint33_radial_19_1254" cx="0" cy="0" r="1" gradientUnits="userSpaceOnUse" gradientTransform="translate(433.103 184.295) rotate(-27.2344) scale(142.519 78.4434)">
<stop stop-color="white"/>
<stop offset="0.0676233" stop-color="white"/>
<stop offset="0.392342" stop-color="white"/>
<stop offset="0.590239" stop-color="white"/>
</radialGradient>
<linearGradient id="paint34_linear_19_1254" x1="189.96" y1="43.8121" x2="228.431" y2="117.039" gradientUnits="userSpaceOnUse">
<stop stop-color="#5C55FF" stop-opacity="0.74"/>
<stop offset="0.48431" stop-color="#372FD6"/>
<stop offset="0.99996" stop-color="#0B0263"/>
</linearGradient>
<radialGradient id="paint35_radial_19_1254" cx="0" cy="0" r="1" gradientUnits="userSpaceOnUse" gradientTransform="translate(177.92 92.2953) rotate(-27.4718) scale(141.383 78.2754)">
<stop stop-color="white"/>
<stop offset="0.0676233" stop-color="white"/>
<stop offset="0.392342" stop-color="white"/>
<stop offset="0.590239" stop-color="white"/>
</radialGradient>
</defs>
</svg>
