<svg width="40" height="40" viewBox="0 0 40 40" fill="none" xmlns="http://www.w3.org/2000/svg">
<path d="M19.572 33.128H21.9622C21.9622 33.128 22.6847 33.0465 23.0523 32.642C23.3923 32.2705 23.3798 31.5734 23.3798 31.5734C23.3798 31.5734 23.3323 28.309 24.8224 27.8282C26.29 27.3549 28.1751 30.9831 30.1728 32.3799C31.6829 33.4358 32.8305 33.2043 32.8305 33.2043L38.1734 33.128C38.1734 33.128 40.9686 32.9524 39.6435 30.716C39.536 30.5328 38.8709 29.0622 35.6707 26.0395C32.3204 22.8744 32.7705 23.3884 36.8058 17.9156C39.2634 14.5825 40.246 12.5471 39.9385 11.6769C39.646 10.8475 37.8383 11.0663 37.8383 11.0663L31.8279 11.1019C31.8279 11.1019 31.3829 11.0408 31.0503 11.2418C30.7278 11.4403 30.5203 11.8983 30.5203 11.8983C30.5203 11.8983 29.5677 14.4782 28.2976 16.6714C25.6199 21.2995 24.5474 21.5437 24.1098 21.2562C23.0923 20.5871 23.3473 18.5644 23.3473 17.1294C23.3473 12.6438 24.0148 10.7737 22.0447 10.2903C21.3896 10.13 20.9096 10.0231 19.237 10.0053C17.0918 9.98241 15.2742 10.0129 14.2466 10.5243C13.5616 10.8653 13.034 11.626 13.3565 11.6693C13.7541 11.7227 14.6541 11.9161 15.1317 12.5776C15.7492 13.4299 15.7267 15.3483 15.7267 15.3483C15.7267 15.3483 16.0817 20.6278 14.8992 21.2842C14.0866 21.7346 12.974 20.8161 10.5863 16.6154C9.36374 14.4655 8.43868 12.0865 8.43868 12.0865C8.43868 12.0865 8.26116 11.6438 7.94364 11.4072C7.55861 11.1197 7.01857 11.0281 7.01857 11.0281L1.30315 11.0637C1.30315 11.0637 0.445591 11.0892 0.130568 11.4683C-0.149453 11.8067 0.108066 12.5038 0.108066 12.5038C0.108066 12.5038 4.5834 23.1568 9.64877 28.5279C14.2966 33.4511 19.572 33.128 19.572 33.128Z" fill="#1E88E5"/>
</svg>
