<svg width="24" height="24" viewBox="0 0 24 24" fill="none" xmlns="http://www.w3.org/2000/svg">
<path fill-rule="evenodd" clip-rule="evenodd" d="M22.5317 8.466L15.5328 1.465C14.5878 0.521 13.3328 0 11.9968 0C10.6608 0 9.40475 0.521 8.46075 1.465L1.46175 8.466C-0.48725 10.415 -0.48725 13.586 1.46175 15.535L8.46075 22.536C9.40475 23.48 10.6608 24.001 11.9968 24.001C13.3328 24.001 14.5878 23.48 15.5328 22.536L22.5317 15.535C23.4757 14.591 23.9958 13.336 23.9958 12.001C23.9958 10.666 23.4757 9.41 22.5317 8.466ZM10.9957 6.97949C10.9957 6.42721 11.4434 5.97949 11.9957 5.97949C12.548 5.97949 12.9957 6.42721 12.9957 6.97949V12.5552C12.9957 13.1075 12.548 13.5552 11.9957 13.5552C11.4434 13.5552 10.9957 13.1075 10.9957 12.5552V6.97949ZM13.4957 16.5059C13.4957 17.3343 12.8242 18.0059 11.9957 18.0059C11.1673 18.0059 10.4957 17.3343 10.4957 16.5059C10.4957 15.6774 11.1673 15.0059 11.9957 15.0059C12.8242 15.0059 13.4957 15.6774 13.4957 16.5059Z" fill="#FFCD29"/>
</svg>
