<svg width="40" height="40" viewBox="0 0 40 40" fill="none" xmlns="http://www.w3.org/2000/svg">
<path fill-rule="evenodd" clip-rule="evenodd" d="M33.64 6.23C36.0375 6.365 37.215 6.72 38.3 8.65C39.43 10.5775 40 13.8975 40 19.745V19.765C40 25.585 39.43 28.93 38.3025 30.8375C37.2175 32.7675 36.04 33.1175 33.6425 33.28C31.245 33.4175 25.2225 33.5 20.005 33.5C14.7775 33.5 8.7525 33.4175 6.3575 33.2775C3.965 33.115 2.7875 32.765 1.6925 30.835C0.575 28.9275 0 25.5825 0 19.7625V19.7425C0 13.8975 0.575 10.5775 1.6925 8.65C2.7875 6.7175 3.9675 6.365 6.36 6.2275C8.7525 6.0675 14.7775 6 20.005 6C25.2225 6 31.245 6.0675 33.64 6.23ZM27.5 19.75L15 12.25V27.25L27.5 19.75Z" fill="#F44336"/>
</svg>
